<svg xmlns="http://www.w3.org/2000/svg" width="28" height="28" fill="currentColor" viewBox="0 0 28 28">
  <path d="M20 4.158 23.843 8h.768l.294-1.178c.563-2.251-1.476-4.29-3.727-3.727L20 3.389v.769Zm-12 0L4.157 8H3.39l-.294-1.178c-.563-2.251 1.476-4.29 3.727-3.727L8 3.389v.769ZM12.308 16 13 8h1l.75 6.25L19 15v1l-6 .667-.692-.667Z"/>
  <path d="M19.136 22.582A9.953 9.953 0 0 1 14 24c-1.9 0-3.677-.53-5.19-1.45L6.998 24H5l.843-4.214A9.955 9.955 0 0 1 4 14C4 8.477 8.477 4 14 4s10 4.477 10 10c0 2.2-.71 4.235-1.915 5.886L22.908 24h-2l-1.772-1.418ZM6 14a8 8 0 1 0 16 0 8 8 0 0 0-16 0Z"/>
</svg>
