<svg xmlns="http://www.w3.org/2000/svg" width="28" height="28" fill="currentColor" viewBox="0 0 28 28">
  <path d="m25.616 9.5-3.884-3.884a2.5 2.5 0 0 0-.635 2.46c-1.835.155-3.46.557-4.852 1.28A8.569 8.569 0 0 0 13.5 11.59a8.568 8.568 0 0 0-2.745-2.232C8.899 8.392 6.631 8 4 8v3c2.368 0 4.101.358 5.37 1.018 1.055.549 1.865 1.344 2.47 2.482-.605 1.138-1.415 1.933-2.47 2.482C8.101 17.642 6.368 18 4 18v3c.34 0 .673-.006 1-.02 2.21-.09 4.138-.496 5.755-1.337a8.572 8.572 0 0 0 2.745-2.232 9.804 9.804 0 0 0 1.379-2.32 7.52 7.52 0 0 1 .282-.591c.604-1.138 1.414-1.933 2.469-2.482.892-.464 2.014-.779 3.425-.925a2.5 2.5 0 0 0 .677 2.291L25.616 9.5Z"/>
  <path d="M16.245 19.643a8.655 8.655 0 0 1-2.065-1.485 10.745 10.745 0 0 0 1.618-2.673v-.003a5.578 5.578 0 0 0 1.832 1.5c.892.464 2.014.779 3.425.925-.17-.8.055-1.669.677-2.29l3.884 3.883-3.884 3.884a2.5 2.5 0 0 1-.635-2.46c-1.835-.155-3.46-.557-4.852-1.28Z"/>
</svg>
