<svg xmlns="http://www.w3.org/2000/svg" width="28" height="28" fill="currentColor" viewBox="0 0 28 28">
  <path d="M17.852 11.84c-.497-.677-.76-1.657-.76-2.882 0-1.228.29-2.216.816-2.9C18.436 5.371 19.194 5 20.104 5c.954 0 1.691.342 2.185 1.02.49.673.731 1.662.731 2.938 0 1.237-.285 2.218-.811 2.892-.529.678-1.293 1.034-2.222 1.034-.905 0-1.635-.364-2.135-1.044Zm1.023-2.85c0 .667.095 1.246.29 1.654.192.405.474.627.854.627.394 0 .697-.226.907-.63.212-.408.322-.986.322-1.651 0-.678-.1-1.262-.3-1.673-.2-.406-.49-.63-.876-.63-.393 0-.688.225-.89.631-.205.41-.307.995-.307 1.672Zm-4.77-1.386c-.471 0-.908.16-1.232.306a1.62 1.62 0 0 1 1.582-1.255c.55 0 1.076.043 1.57.345l.167.103V5.165l-.08-.023c-.472-.131-.964-.131-1.571-.131h-.011c-1.267 0-2.162.507-2.736 1.304-.57.791-.818 1.858-.818 2.972 0 1.353.295 2.244.81 2.796.519.555 1.24.748 2.042.748.773 0 1.466-.247 1.967-.729.502-.482.8-1.19.8-2.092 0-.801-.26-1.407-.712-1.812-.45-.403-1.074-.594-1.778-.594Zm-.234 3.678c-.436 0-.702-.138-.867-.384-.17-.256-.245-.649-.245-1.186v-.13c.198-.166.627-.365 1.133-.365.312 0 .544.08.698.226.152.145.244.37.244.695 0 .34-.083.626-.242.825-.155.196-.39.319-.721.319ZM8.64 7.994l2.114-2.93H5.413v2.199l.175-.13c.51-.378 1.076-.477 2.16-.497L5.906 9.368l.234-.024a8.15 8.15 0 0 1 .87-.053c.598 0 .96.105 1.17.265.204.154.283.371.283.645 0 .364-.113.608-.304.764-.194.16-.487.242-.872.242-.875 0-1.594-.49-1.902-.778l-.185-.172v2.098l.05.033c.105.067.36.177.71.27.355.094.817.173 1.338.173 1.098 0 1.863-.304 2.353-.794.49-.49.69-1.15.69-1.836 0-.636-.17-1.16-.496-1.544-.293-.345-.703-.568-1.205-.663ZM25 16c0 2.462-3.537 4.52-8 5.22v-2.446c1.354-.237 2.837-.585 3.774-1.044 1.75-.855 2.136-1.706 2.136-2.115 0-.33-.252-.948-1.266-1.623.786-.259 1.347-.555 1.742-.862C24.41 13.965 25 14.948 25 16ZM6.225 14.082c-.778-.256-1.328-.555-1.711-.868C3.552 14.03 3 14.984 3 16c0 2.505 3.248 4.554 7.829 5.218l.11.014-.646.647a2 2 0 0 0 0 2.828L15 20l-4.707-4.707a2 2 0 0 0 0 2.828l.667.668-.139-.015c-1.446-.234-2.608-.56-3.596-1.043-1.748-.855-2.135-1.707-2.135-2.116 0-.315.23-.893 1.135-1.533Z"/>
</svg>
