<svg xmlns="http://www.w3.org/2000/svg" width="28" height="28" fill="currentColor" viewBox="0 0 28 28">
  <path d="M18.213 19.274a6.724 6.724 0 0 1-2.525 1.263l.624 2.422a9.227 9.227 0 0 0 3.677-1.91l4.98 4.981 1.061-1.06L9.787 8.726a6.723 6.723 0 0 1 2.525-1.263l-.624-2.422a9.228 9.228 0 0 0-3.677 1.91L3.031 1.97 1.97 3.03l16.243 16.244Z"/>
  <path d="M6.338 8.816A9.206 9.206 0 0 0 4.75 14a9.22 9.22 0 0 0 2.67 6.5H6.5A2.5 2.5 0 0 0 4 23h8v-8a2.5 2.5 0 0 0-2.5 2.5v1.532A6.734 6.734 0 0 1 7.25 14c0-1.228.328-2.38.901-3.372L6.338 8.815Zm15.324 10.368A9.206 9.206 0 0 0 23.25 14a9.22 9.22 0 0 0-2.67-6.5h.92A2.5 2.5 0 0 0 24 5h-8v8a2.5 2.5 0 0 0 2.5-2.5V8.968A6.734 6.734 0 0 1 20.75 14a6.72 6.72 0 0 1-.901 3.372l1.813 1.813Z"/>
</svg>
