<svg xmlns="http://www.w3.org/2000/svg" width="28" height="28" fill="currentColor" viewBox="0 0 28 28">
  <path d="M17 19.721c4.463-.7 8-2.758 8-5.221C25 11.462 20.075 9 14 9S3 11.462 3 14.5c0 2.505 3.248 4.554 7.829 5.218l.107.018-.643.643a2 2 0 0 0 0 2.828L15 18.5l-4.707-4.707a2 2 0 0 0 0 2.828l.667.668-.139-.015c-1.446-.234-2.608-.56-3.596-1.043-1.748-.855-2.135-1.707-2.135-2.116 0-.41.387-1.26 2.135-2.116 1.64-.802 4.032-1.349 6.775-1.349 2.742 0 5.135.547 6.774 1.35 1.75.854 2.136 1.706 2.136 2.115 0 .41-.387 1.26-2.136 2.116-.937.458-2.42.806-3.774 1.043v2.447Z"/>
</svg>
