<svg xmlns="http://www.w3.org/2000/svg" width="28" height="28" fill="currentColor" viewBox="0 0 28 28">
  <path d="M2.323 19.67C3.35 13.324 6.83 9.38 13 9V4l13 9-13 9v-5a23.062 23.062 0 0 0-2 .157c-2.783.333-4.957 1.262-6.78 3.36-.1.114-.2.233-.298.355C3.237 21.727 2.602 22.76 2 24c0-1.351.082-2.627.247-3.821.024-.171.05-.341.076-.51ZM22.486 13 15 7.817v3.18L13 11c-2.726.168-4.556 1.115-5.943 2.607-.852.915-1.548 2.098-2.06 3.558 1.776-1.196 3.785-1.786 6.043-2.025.578-.06 1.277-.119 1.96-.14h2v3.183L22.486 13Z"/>
</svg>
