<svg xmlns="http://www.w3.org/2000/svg" width="28" height="28" fill="currentColor" viewBox="0 0 28 28">
  <path d="M10 7.079A7.99 7.99 0 0 0 6 14v3H5v4.25C5 22.907 6.093 24 7.75 24H8v-9a6 6 0 0 1 12 0v9h.25c1.657 0 2.75-1.093 2.75-2.75V17h-1v-3a7.99 7.99 0 0 0-4-6.921V5l-2-2h-4l-2 2v2.079ZM14 6c-.691 0-1.359.097-2 .262V5h4v1.262A7.998 7.998 0 0 0 14 6Z"/>
  <path d="M19 15a5 5 0 1 0-10 0v9h10v-9Zm-3 3c0-.375.114-1.385.188-2H10v-1h8v1h-.691c.074.639.191 1.699.191 2 0 .888-1.5.888-1.5 0Z"/>
</svg>
