<svg xmlns="http://www.w3.org/2000/svg" width="28" height="28" fill="currentColor" viewBox="0 0 28 28">
  <path d="M2 3.001 3.001 2l5.87 5.87c.351-.295.73-.56 1.129-.791v-2.08L12 3h4l2 2v2.079a7.99 7.99 0 0 1 4 6.92v3h1v4.25c0 .24-.024.468-.068.682L26 25l-1.001 1L2 3.001ZM14 10a5 5 0 0 1 5 5v2.998l1 1V15a6 6 0 0 0-9.123-5.123l.731.731A4.979 4.979 0 0 1 14 10Zm2 5 1 1h1v-1h-2Zm-4-8.738A8.004 8.004 0 0 1 14 6a8.01 8.01 0 0 1 2 .262V5h-4v1.262ZM7.268 9.683l1.84 1.84A5.972 5.972 0 0 0 8 15v9h-.25C6.093 24 5 22.907 5 21.25V17h1v-3a7.94 7.94 0 0 1 1.268-4.316ZM13.584 16 19 21.413V24H9v-9c0-1.019.305-1.966.828-2.756L12.585 15H10v1h3.584Zm7.801 7.8-1.386-1.386V24h.25c.417 0 .799-.07 1.136-.2Z"/>
</svg>
