<svg xmlns="http://www.w3.org/2000/svg" width="28" height="28" fill="currentColor" viewBox="0 0 28 28">
  <path d="M3.22 8.287c-1.597.433-2.545 2.094-2.117 3.71l.258.976 21.211-5.75-.258-.976c-.428-1.617-2.07-2.576-3.668-2.143L3.22 8.287ZM21 19.5l-.5-4.5h-1l-.22 5.625.595.588.625-.037L24 21v-1l-3-.5Z"/>
  <path d="M23.089 9.173 1.878 14.924l1.808 6.83c.428 1.616 2.07 2.575 3.668 2.142l6.157-1.67A7.503 7.503 0 0 0 28 19.5a7.498 7.498 0 0 0-3.923-6.593l-.988-3.734ZM26.5 19.5a6 6 0 1 1-12 0 6 6 0 0 1 12 0Z"/>
</svg>
