<svg xmlns="http://www.w3.org/2000/svg" width="28" height="28" fill="currentColor" viewBox="0 0 28 28">
  <path d="M11.643 4.565a.2.2 0 0 1 .33.01l.857 1.33a.2.2 0 0 0 .34 0l1.796-2.788a.218.218 0 0 0 0-.234L13.17.094a.2.2 0 0 0-.34 0l-1.54 2.39a.2.2 0 0 1-.33.01l-.295-.408a.203.203 0 0 0-.33 0L9.04 3.872a.22.22 0 0 0 0 .257l1.293 1.785a.203.203 0 0 0 .332 0l.976-1.349Zm4.398-.694 1.293-1.785a.203.203 0 0 1 .332 0l1.293 1.785a.22.22 0 0 1 0 .258l-1.293 1.785a.203.203 0 0 1-.332 0L16.041 4.13a.22.22 0 0 1 0-.258ZM14 13c4.418 0 8-1.12 8-2.5S18.418 8 14 8s-8 1.12-8 2.5S9.582 13 14 13Zm2.672-3.843-3.349 2.834c-.71-.02-1.383-.071-1.996-.148l3.35-2.834c.71.02 1.382.071 1.995.148ZM9.44 11.475C8.542 11.213 8 10.872 8 10.5c0-.68 1.81-1.255 4.292-1.438L9.44 11.475ZM20 10.5c0 .68-1.81 1.255-4.293 1.438l2.852-2.413c.898.262 1.441.603 1.441.975Z"/>
  <path d="M14 14c2.282 0 4.387-.287 5.955-.777.778-.244 1.48-.554 2.01-.945l.002-.001a8.71 8.71 0 0 1-2.243 5.162L22 27h-1.5l-3.36-7.68A7.573 7.573 0 0 1 14 20a7.573 7.573 0 0 1-3.14-.68L9.469 22.5h7.995l.666 1.5H8.813L7.5 27H6l2.276-9.561a8.71 8.71 0 0 1-2.243-5.162h.001c.53.392 1.233.702 2.01.946 1.57.49 3.675.777 5.956.777Z"/>
</svg>
