<svg xmlns="http://www.w3.org/2000/svg" width="28" height="28" fill="currentColor" viewBox="0 0 28 28">
  <path d="M11.5 3c-.8 0-1.5-.7-1.5-1.5S10.7 0 11.5 0 13 .7 13 1.5 12.3 3 11.5 3ZM8 5c-.6 0-1-.4-1-1s.4-1 1-1 1 .4 1 1-.4 1-1 1ZM.957 10.3c2.003.5 7.212 1.7 13.022 1.7h12.02s2.434-.1 1.933-2H13.98C6.867 10 .957 8 .957 8c-1.603.6-.902 1.6 0 2.3ZM13.979 13c-5.61 0-9.416-.7-11.72-1.3L5 18.8V21c-1.703 0-1 2-1 2h2l2-2h13l2 2h1.997s.601-2-1.001-2v-2.7l1.602-5.3h-11.62ZM11 8c.6 0 1-.4 1-1s-.4-1-1-1-1 .4-1 1 .4 1 1 1Z"/>
</svg>
