<svg xmlns="http://www.w3.org/2000/svg" width="28" height="28" fill="currentColor" viewBox="0 0 28 28">
  <path d="M26.758 5.494 17.062 9.59 14.67 7.117c.673-.677 1.735-.677 3.213.188 0 0 .648-.44 1.614-1.037l-3.31-3.42s.765-.844 2.192-.247c1.3.536 3.704 1.735 4.17 1.967.395-.192.79-.379 1.179-.546 1.888-.794 3.826-.617 4.048-.076.345.855-1.017 1.548-1.017 1.548Zm-3.932 6.004c-.283 1.127-1.609 1.011-1.609 1.011l-.506-3.874 2.976-1.27c-.274 1.432-.674 3.359-.86 4.133ZM11.723 6.593a1.972 1.972 0 0 0-.667-.115h-.383V5.165H8.968a1.348 1.348 0 0 0-1.443 1.313h-1.05a1.345 1.345 0 0 0-1.437-1.313H3.327v1.313h-.378c-.229 0-.456.04-.672.115V4.771A1.36 1.36 0 0 1 3.72 3.328h6.56a1.359 1.359 0 0 1 1.443 1.443v1.822ZM1.837 7.88a1.36 1.36 0 0 0-.084.566v.657h10.494v-.657a1.358 1.358 0 0 0-1.443-1.443H3.196a1.358 1.358 0 0 0-1.359.877Zm9.098 3.323.394 1.05h.918V9.628H1.753v2.625h.918l.394-1.05h7.87ZM5.634 15.97a1.502 1.502 0 0 1 2.73 0c.48.086.97.216 1.468.391.702.247 1.171.91 1.171 1.656v1.388a.752.752 0 0 1-.315.612c-.552.394-1.782.591-3.69.591-1.906 0-3.136-.197-3.688-.59a.752.752 0 0 1-.316-.613v-1.18c0-.888.572-1.674 1.416-1.947a9.235 9.235 0 0 1 1.224-.309ZM7 17.223a.626.626 0 1 0-.001-1.252.626.626 0 0 0 0 1.252Z"/>
  <path d="M11.254 23.866c.313-.313-.063-2.757-.202-3.502-.587.494-1.83.745-4.053.745-2.178 0-3.442-.24-4.057-.745-.143.775-.503 3.197-.197 3.502 0 0 2.125 2.256 4.254 2.256 2.126 0 4.255-2.256 4.255-2.256ZM7.75 22.613a.752.752 0 1 1-1.503 0 .752.752 0 0 1 1.503 0Zm-3.379 3.133-1.376.878v.501h1.251l.626-1.128-.5-.25Zm5.256 0-.5.251.625 1.128h1.252v-.501l-1.377-.878ZM21 21.895c3.695 0 4-.66 4-1.28v-.905c.33-.04.5-.25.5-.63v-1.16a.55.55 0 0 0-.5-.63v-.26c0-.615-.305-1.28-4-1.28s-4 .65-4 1.285v.26a.55.55 0 0 0-.5.63v1.155c0 .38.17.59.5.63v.905c0 .635.305 1.28 4 1.28Zm-2.59-4.145c-.555 0-.555-1 0-1h2.68c.555 0 .555 1 0 1h-2.68Z"/>
  <path d="M21 22.41c2.12 0 3.375-.205 4-.7v4.54h-.5c-.69 0-1-.31-1-1.025h-5c0 .695-.305 1.025-1 1.025H17v-4.54c.625.5 1.88.7 4 .7Zm2.375 1.8a.64.64 0 1 0-.625-.64.63.63 0 0 0 .625.63v.01Zm-4.75-1.28a.64.64 0 1 0 .625.63.635.635 0 0 0-.625-.64v.01Z"/>
</svg>
