<svg xmlns="http://www.w3.org/2000/svg" width="28" height="28" fill="currentColor" viewBox="0 0 28 28">
  <path d="M18.348 4.515a212.653 212.653 0 0 0-.615 1.085l-.05-.017c-.362-.117-.748-.23-1.161-.34a22.2 22.2 0 0 0-1.161-.282l-.011-.681c-.02-1.403-.005-2.234.146-2.796a2 2 0 1 1 3.864 1.035c-.115.429-.486 1.078-1.012 1.996Zm-2.085 1.693c.4.108.77.215 1.11.326.575.187 1.067.383 1.489.6 2.042 1.052 2.406 2.603 2.256 6.07a31.802 31.802 0 0 1-.28 2.945c-.29 2.213-.424 3.405 1.59 5.852l-.928 2L3 19v-2.06c2.96-1.11 3.472-2.343 4.324-4.395l.006-.016c.306-.736.67-1.614 1.23-2.69 1.61-3.09 2.704-4.248 5.017-4.127.466.024.982.1 1.562.224.35.074.724.165 1.124.272Zm-10.2 14.656a2.53 2.53 0 0 0-.152.718 2.485 2.485 0 0 0 .176 1.082 2.496 2.496 0 0 0 1.673 1.484 2.496 2.496 0 0 0 3.11-1.985l-4.807-1.299Z"/>
</svg>
