<svg xmlns="http://www.w3.org/2000/svg" width="28" height="28" fill="currentColor" viewBox="0 0 28 28">
  <path d="M9.08 4.514A200.29 200.29 0 0 1 9.695 5.6l.05-.017c.362-.117.748-.23 1.161-.34.407-.11.794-.204 1.16-.282.005-.241.01-.468.012-.681.02-1.403.004-2.234-.146-2.796a2 2 0 0 0-3.864 1.035c.115.429.486 1.078 1.012 1.996Zm2.085 1.693c-.4.108-.77.215-1.11.326-.575.187-1.068.383-1.489.6-2.042 1.052-2.406 2.603-2.256 6.07.052 1.212.176 2.154.28 2.945C6.88 18.36 7.013 19.553 5 22l.928 2 18.5-5v-2.061c-2.96-1.11-3.472-2.343-4.324-4.395l-.006-.016c-.306-.737-.67-1.614-1.231-2.69-1.61-3.09-2.703-4.248-5.016-4.127-.466.024-.982.1-1.562.224-.35.074-.724.165-1.124.272Zm10.2 14.656a2.503 2.503 0 0 1-1.697 3.284 2.496 2.496 0 0 1-3.11-1.984l4.807-1.3Z"/>
</svg>
