<svg xmlns="http://www.w3.org/2000/svg" width="28" height="28" fill="currentColor" viewBox="0 0 28 28">
  <path d="M18.348 4.515a212.653 212.653 0 0 0-.615 1.085l-.05-.017c-.362-.117-.748-.23-1.161-.34a22.2 22.2 0 0 0-1.161-.282l-.011-.681c-.02-1.403-.005-2.234.146-2.796a2 2 0 1 1 3.864 1.035c-.115.429-.486 1.078-1.012 1.996Zm3.893 13.739c-.05-.758.06-1.54.193-2.485.123-.87.265-1.879.319-3.134.013-.297.02-.575.021-.834l1.456.221a30.61 30.61 0 0 1-.028 1.002 31.772 31.772 0 0 1-.28 2.945c-.131 1.004-.23 1.765-.112 2.524l-1.569-.239ZM3.452 13.039l1.478.577c.422-.631.718-1.364 1.076-2.249.329-.815.71-1.76 1.29-2.873.139-.264.27-.509.4-.734l-1.372-.536a29.14 29.14 0 0 0-.476.882 31.78 31.78 0 0 0-1.23 2.69c-.39.936-.683 1.644-1.166 2.243Zm-1.688-.305L.27 12.151c.676-.708 1.093-1.578 1.698-2.84.275-.572.588-1.226.982-1.982.286-.549.53-1.044.748-1.487.321-.652.587-1.192.85-1.623l1.448.566c-.28.356-.576.938-1.028 1.825-.166.326-.354.694-.569 1.107A55.025 55.025 0 0 0 3.315 9.94c-.537 1.15-.957 2.047-1.551 2.795Zm14.499-6.526c.4.108.77.215 1.11.326.575.187 1.067.383 1.489.6 2.042 1.052 2.406 2.603 2.256 6.07a31.802 31.802 0 0 1-.28 2.945c-.29 2.213-.424 3.405 1.59 5.852l-.928 2L3 19v-2.06c2.96-1.11 3.472-2.343 4.324-4.395l.006-.016c.306-.736.67-1.614 1.23-2.69 1.61-3.09 2.704-4.248 5.017-4.127.466.024.982.1 1.562.224.35.074.724.165 1.124.272ZM5.993 21.086c.02-.076.043-.15.07-.222l4.807 1.3a2.532 2.532 0 0 1-.225.686 2.485 2.485 0 0 1-.694.85c-.598.468-1.4.66-2.19.448a2.496 2.496 0 0 1-1.768-3.062Z"/>
</svg>
