<svg xmlns="http://www.w3.org/2000/svg" width="28" height="28" fill="currentColor" viewBox="0 0 28 28">
  <path d="M18.348 4.514a210.497 210.497 0 0 0-.615 1.085l-.05-.017c-.362-.117-.748-.23-1.161-.34a22.2 22.2 0 0 0-1.161-.282l-.011-.681c-.02-1.403-.005-2.234.146-2.796a2 2 0 1 1 3.864 1.035c-.115.429-.486 1.078-1.012 1.996Zm-2.085 1.693c.4.108.77.215 1.11.326.575.187 1.067.383 1.489.6 2.042 1.052 2.406 2.603 2.256 6.07a31.809 31.809 0 0 1-.28 2.945c-.29 2.213-.424 3.405 1.59 5.852l-.928 2L3 19v-2.061c2.96-1.11 3.472-2.343 4.324-4.395l.006-.016c.306-.737.67-1.614 1.23-2.69 1.61-3.09 2.704-4.248 5.017-4.127.466.024.982.1 1.562.224.35.074.724.165 1.124.272ZM6.083 17.735l13.371 3.583c-.298-.562-.512-1.402-.64-1.99-.256-1.185-.108-2.306.023-3.3l.019-.14c.102-.785.216-1.653.264-2.772.074-1.726-.006-2.642-.2-3.204-.133-.387-.333-.671-.974-1.001a8.11 8.11 0 0 0-1.192-.476 20.03 20.03 0 0 0-1.009-.296c-.374-.1-.713-.183-1.021-.248a8.192 8.192 0 0 0-1.252-.183c-.732-.038-1.05.109-1.358.375-.449.388-.978 1.14-1.78 2.68a29.842 29.842 0 0 0-1.157 2.532l-.054.13c-.383.927-.816 1.971-1.63 2.87-.103.112-.21.24-.32.371-.326.387-.688.818-1.09 1.07Zm-.09 3.351c.02-.076.043-.15.07-.222l4.807 1.3a2.532 2.532 0 0 1-.225.686 2.485 2.485 0 0 1-.694.85c-.598.468-1.4.66-2.19.448a2.496 2.496 0 0 1-1.768-3.062Z"/>
</svg>
