<svg xmlns="http://www.w3.org/2000/svg" width="28" height="28" fill="currentColor" viewBox="0 0 28 28">
  <path d="M18.348 4.515a212.653 212.653 0 0 0-.615 1.085l-.05-.017c-.362-.117-.748-.23-1.161-.34a22.2 22.2 0 0 0-1.161-.282l-.011-.681c-.02-1.403-.005-2.234.146-2.796a2 2 0 1 1 3.864 1.035c-.115.429-.486 1.078-1.012 1.996Zm-2.085 1.693c.4.108.77.215 1.11.326.575.187 1.067.383 1.489.6 2.042 1.052 2.406 2.603 2.256 6.07a31.802 31.802 0 0 1-.28 2.945c-.203 1.553-.33 2.603.308 3.936l4.884 4.885-1.06 1.06-3.014-3.013v.002L8.635 9.698v-.002L1.97 3.03l1.06-1.06L9.4 8.339c1.21-1.969 2.285-2.726 4.177-2.627.466.024.982.1 1.562.224.35.074.724.165 1.124.272Zm5.245 17.777L8.16 10.638a36.006 36.006 0 0 0-.83 1.891l-.007.016C6.472 14.597 5.96 15.83 3 16.94V19l18.5 5 .008-.015ZM6.063 20.864a2.53 2.53 0 0 0-.152.718 2.485 2.485 0 0 0 .176 1.082 2.496 2.496 0 0 0 1.673 1.484 2.496 2.496 0 0 0 3.11-1.985l-4.807-1.299Z"/>
</svg>
