<svg xmlns="http://www.w3.org/2000/svg" width="28" height="28" fill="currentColor" viewBox="0 0 28 28">
  <path d="M19.193 8.712c-.458-1.148-.386-1.837-.21-2.19C19.14 6.21 19.463 6 20 6c0-.428-.133-.68-.39-.843-.576-.364-1.416-.072-1.823.475a2.478 2.478 0 0 0-.145.22c-.449.897-.377 2.08.162 3.426l.004.01.937 2.212h-6.739L10.67 8.41l.298-.09C11.823 8.073 12 7.894 12 7H7c0 1.795.798 2.184 1.782 1.948.068-.016.131-.035.195-.053l.128-.036.111-.032 3.36 7.77a1.997 1.997 0 0 0-.513.903h-1.154A5.502 5.502 0 0 0 0 18.5 5.5 5.5 0 0 0 10.793 20H9.209a4.001 4.001 0 1 1-5.695-4.973L5.5 19h6.768A2 2 0 0 0 16 18a2 2 0 0 0-2.048-2l-1.297-3h6.726l2.119 5c.3.706.694.963 1.13.979.268.01.552-.072.842-.198l-1.784-4.198a4 4 0 1 1-2.211 1.299l-.637-1.487a5.5 5.5 0 1 0 2.253-1.213l-1.9-4.47Z"/>
</svg>
