<svg xmlns="http://www.w3.org/2000/svg" width="28" height="28" fill="currentColor" viewBox="0 0 28 28">
  <path d="m18.17.105-1.295 2.284a.227.227 0 0 0 0 .222l1.295 2.284a.2.2 0 0 0 .351 0l1.296-2.284a.227.227 0 0 0 0-.222L18.52.105a.199.199 0 0 0-.35 0ZM8.324 11.59 6.361 15a8.991 8.991 0 0 0 7.485 4 8.99 8.99 0 0 0 7.484-4l-1.494-2.596.983-1.799a.22.22 0 0 0 0-.21l-1.797-3.288a.199.199 0 0 0-.353 0l-.917 1.678-3.733-6.484a.2.2 0 0 0-.347 0l-2.335 4.057-1.318-2.257a.2.2 0 0 0-.347 0L6.875 8.893a.213.213 0 0 0 0 .214l1.45 2.484Zm5.522 5.91c-1.5 0-2.5-.5-3.5-1.5l3.319-7.111a.2.2 0 0 1 .362 0L17.346 16c-1 1-2 1.5-3.5 1.5Z"/>
  <path d="M23.691 19.938 23 18.061l-9.154 3.373-9.155-3.373L4 19.938l6.953 2.562L4 25.06l.691 1.877 19-7Zm-8.32 4.19 2.893-1.066 5.427 2L23 26.938l-7.629-2.81Z"/>
</svg>
