<svg xmlns="http://www.w3.org/2000/svg" width="28" height="28" fill="currentColor" viewBox="0 0 28 28">
  <path d="M11 5c-2 2-3 5-3 8v2.201c.9.648 1.754.755 2.53.628 1.002-.165 1.922-.731 2.693-1.245.75-.5 1.828-1.183 3.07-1.39a4.194 4.194 0 0 1 2.707.433V13c0-3-1-6-3-8h-5Z"/>
  <path d="M16.457 14.18c.781-.13 1.642-.025 2.543.62v8.5c0 1.7-1.1 2.7-2.7 2.7h-5.5C9.1 26 8 24.9 8 23.3v-6.924c.92.488 1.832.581 2.692.44 1.237-.204 2.317-.888 3.085-1.4.75-.5 1.672-1.067 2.68-1.235ZM16 1h-5v3h5V1Z"/>
</svg>
