<svg xmlns="http://www.w3.org/2000/svg" width="28" height="28" fill="currentColor" viewBox="0 0 28 28">
  <path d="M23.49 13.52c.351-1.307-.112-2.432-1.162-3.036a8416.24 8416.24 0 0 0 1.59-5.933c.316-1.186-.349-2.164-1.416-2.45-1.066-.285-2.132.229-2.449 1.415L18.476 9.4c-1.302-.086-2.345.673-2.714 2.049l-.064.242 7.728 2.07.064-.242ZM14 8.989s.5-1.497.998-1.996c.5-.5 1.997-.998 1.997-.998s-1.498-.5-1.997-.998C14.5 4.497 14 3 14 3s-.483 1.48-.998 1.996c-.515.515-1.997.998-1.997.998s1.498.499 1.997.998c.5.5.998 1.997.998 1.997Zm-7 5.248s.707-2.121 1.414-2.828c.707-.707 2.828-1.414 2.828-1.414s-2.12-.707-2.828-1.414C7.707 7.874 7 5.75 7 5.75s-.685 2.1-1.414 2.83c-.73.729-2.828 1.414-2.828 1.414s2.121.706 2.828 1.413c.707.708 1.414 2.83 1.414 2.83Zm8.44-1.579c-1.729 2.87-4.022 4.999-7.608 5.208.418 1.155 1.161 2.255 2.093 3.255l2.48-.995-1.122 2.267a16.654 16.654 0 0 0 4.332 2.57L18.2 21.68l-.475 3.94c1.315.286 2.553.307 3.562-.008.977-3.645 1.902-8.23 1.881-10.884l-7.728-2.07Z"/>
</svg>
