<svg xmlns="http://www.w3.org/2000/svg" width="28" height="28" fill="currentColor" viewBox="0 0 28 28">
  <path d="M13.5 3C21.136 3 24 5.857 24 12.524V23H13.5C5.864 23 3 19.19 3 12.524 3 5.857 5.864 3 13.5 3Zm-2.01 8.15c.474-.645.565-.986.565-.986s-1.783-2.972-1.953-3.142c-.17-.169-2.78.603-1.933 3.143.847 2.539 3.11 4.814 3.11 4.814s2.183 2.553 5.234 3.738 3.63-1.722 3.46-1.891c-.17-.17-3.154-1.96-3.154-1.96s-.195 0-.99.619c-.796.618-1.597-.123-3.015-1.522-1.417-1.4-1.8-2.17-1.325-2.814Z"/>
</svg>
