<svg xmlns="http://www.w3.org/2000/svg" width="28" height="28" fill="currentColor" viewBox="0 0 28 28">
  <path d="M14 17.011c7.39 0 8-1.362 8-2.642v-1.868c.66-.082 1-.516 1-1.3V8.807a1.171 1.171 0 0 0-.226-.875 1.108 1.108 0 0 0-.344-.296 1.074 1.074 0 0 0-.43-.13V6.97c0-1.27-.61-2.642-8-2.642S6 5.669 6 6.98v.537a1.106 1.106 0 0 0-.774.425A1.15 1.15 0 0 0 5 8.817V11.2c0 .784.34 1.218 1 1.3v1.868c0 1.31.61 2.642 8 2.642ZM8.82 8.456c-1.11 0-1.11-2.064 0-2.064h5.36c1.11 0 1.11 2.064 0 2.064H8.82Z"/>
  <path d="M19 23.884C19 25.36 19.62 26 21 26h1v-9.37c-1.25 1.021-3.76 1.444-8 1.444s-6.75-.413-8-1.445V26h1c1.39 0 2-.681 2-2.116h10Zm.47-2.302a1.25 1.25 0 0 1-.72.207v-.02a1.242 1.242 0 0 1-.884-.385 1.322 1.322 0 0 1-.366-.916c0-.262.076-.519.218-.737a1.29 1.29 0 0 1 .58-.486 1.245 1.245 0 0 1 1.398.3 1.36 1.36 0 0 1 .258 1.45 1.31 1.31 0 0 1-.485.587ZM8.528 19.356a1.25 1.25 0 0 1 .721-.209v-.02c.335.005.655.147.889.395.234.247.364.58.361.926.004.263-.069.522-.208.742-.14.22-.34.393-.575.496-.236.102-.495.13-.745.078a1.269 1.269 0 0 1-.66-.366 1.36 1.36 0 0 1-.267-1.452c.1-.242.269-.447.484-.59Z"/>
</svg>
