<svg xmlns="http://www.w3.org/2000/svg" width="28" height="28" fill="currentColor" viewBox="0 0 28 28">
  <path d="M16 4.8c.2-1.6-.8-2.5-2.1-2.5-.758 0-1.61.38-2.067.583-.191.085-.313.14-.33.123L11.5 3l.002.006L12 4.3c-.4 3.8 3.6 3.4 4 .5Z"/>
  <path d="M2 13c-.1.7-.6 3.9-.8 5.1-.8.4-1.2 1.1-1.2 1.8v6h1l1-6h7.6c.3 1.8.9 6 .9 6s1.5.1 1.5-1v-5h4v5c0 1.1 1.5 1 1.5 1s.6-4.2.9-6H26l1 6h1v-6c0-.7-.5-1.5-1.2-1.8-.06-.394-.149-.961-.245-1.58A573.701 573.701 0 0 1 26 12.9c-.2-1-.8-2-2-2h-2c-1.2 0-1.8 1-2 2l-.064.464c-.154 1.125-.481 3.516-.736 4.536h-.6c-.1-1.1-.6-1.7-1.6-1.9v-.9l1.5-1.7s-.8-3.1-1-4c-.2-1-.8-1.5-2-1.5h-3c-1.2 0-1.8.5-2 1.5-.2 1-1 4-1 4l1.5 1.7v.9c-1 .2-1.5.9-1.6 2h-.6c-.095-.617-.258-1.619-.413-2.575A190.42 190.42 0 0 1 8 13c-.2-1-.8-2-2-2H4c-1.2 0-1.8 1-2 2Z"/>
</svg>
