<svg xmlns="http://www.w3.org/2000/svg" width="28" height="28" fill="currentColor" viewBox="0 0 28 28">
  <path d="m19.384 13.561 1.586-1.586a3.5 3.5 0 0 0-4.95-4.95l-3.535 3.536a3.5 3.5 0 0 0 2.51 5.974l-1.732 1.733a5.5 5.5 0 0 1-2.192-9.122l3.535-3.535a5.5 5.5 0 0 1 7.779 7.778l-3.01 3.01a6.547 6.547 0 0 0 .01-2.838Z"/>
  <path d="m11.975 20.97 3.535-3.535A3.5 3.5 0 0 0 13 11.461l1.733-1.733a5.5 5.5 0 0 1 2.192 9.122l-3.536 3.535a5.5 5.5 0 1 1-7.778-7.778l3.009-3.01a6.535 6.535 0 0 0-.008 2.838L7.025 16.02a3.5 3.5 0 0 0 4.95 4.95Z"/>
</svg>
