<svg xmlns="http://www.w3.org/2000/svg" width="28" height="28" fill="currentColor" viewBox="0 0 28 28">
  <path d="m26 25-7-7h2v-6h-8L3 2 2 3l23 23 1-1Zm-9-9-2-2h4v2h-2Zm-1.417 2-6-6H2v6h13.583Zm4.873-9.846C21.258 8.794 22 9.388 22 11h2c0-1.776-.852-2.578-1.715-3.392C21.4 6.773 20.5 5.926 20.5 4h-2c0 2.59 1.018 3.403 1.956 4.154Zm4.53-1.44C24.207 5.951 23.5 5.26 23.5 4h-2c0 1.631.805 2.388 1.643 3.175C24.053 8.029 25 8.919 25 11h2c0-2.312-1.06-3.351-2.014-4.286ZM25 18v-6h2v6h-2Z"/>
  <path d="M24 18v-6h-2v6h2Z"/>
</svg>
