<svg xmlns="http://www.w3.org/2000/svg" width="28" height="28" fill="currentColor" viewBox="0 0 28 28">
  <path d="m18.325 1.105-1.296 2.284a.227.227 0 0 0 0 .222l1.296 2.284c.08.14.27.14.35 0l1.296-2.284a.227.227 0 0 0 0-.222l-1.296-2.284a.199.199 0 0 0-.35 0Zm-7.997.993L8.03 5.89a.215.215 0 0 0 0 .222l2.297 3.79a.2.2 0 0 0 .344 0l1.354-2.234a.2.2 0 0 1 .342 0l1.96 3.235a.2.2 0 0 0 .344 0L16.97 7.11a.215.215 0 0 0 0-.222L14.672 3.1a.2.2 0 0 0-.344 0l-1.354 2.234a.2.2 0 0 1-.342 0l-1.96-3.235a.2.2 0 0 0-.344 0ZM24.9 15c0 1.7-1.1 3-2.6 3h-2c-.8 1.8-2.8 2-7.4 2-7.6 0-8-.5-8-8h17.3c1.5 0 2.7 1.3 2.7 3Zm-1.8 0c-.1-.6-.5-1-1-1H21c0 .429-.029.8-.055 1.145-.023.298-.045.577-.045.855h1.3c.5 0 .9-.4.9-1Zm-.1 6.2c0 1.7-1.1 2.8-2.8 2.8H5.7C4.1 24 3 22.9 3 21.2V21h20v.2Z"/>
</svg>
