<svg xmlns="http://www.w3.org/2000/svg" width="28" height="28" fill="currentColor" viewBox="0 0 28 28">
  <path d="M7 5a2 2 0 0 0-2 2v1a2 2 0 0 0 2 2h1a2 2 0 0 0 2-2V7a2 2 0 0 0-2-2H7Zm0 7a2 2 0 0 0-2 2v1a2 2 0 0 0 2 2h1a2 2 0 0 0 2-2v-1a2 2 0 0 0-2-2H7Zm-2 9a2 2 0 0 1 2-2h1a2 2 0 0 1 2 2v1a2 2 0 0 1-2 2H7a2 2 0 0 1-2-2v-1Zm9-2a2 2 0 0 0-2 2v1a2 2 0 0 0 2 2h1a2 2 0 0 0 2-2v-1a2 2 0 0 0-2-2h-1Zm-2-5a2 2 0 0 1 2-2h1a2 2 0 0 1 2 2v1a2 2 0 0 1-2 2h-1a2 2 0 0 1-2-2v-1Zm9-2a2 2 0 0 0-2 2v1a2 2 0 0 0 2 2h1a2 2 0 0 0 2-2v-1a2 2 0 0 0-2-2h-1Zm-9-5a2 2 0 0 1 2-2h1a2 2 0 0 1 2 2v1a2 2 0 0 1-2 2h-1a2 2 0 0 1-2-2V7Zm9-2a2 2 0 0 0-2 2v1a2 2 0 0 0 2 2h1a2 2 0 0 0 2-2V7a2 2 0 0 0-2-2h-1Z"/>
</svg>
