<svg xmlns="http://www.w3.org/2000/svg" width="28" height="28" fill="currentColor" viewBox="0 0 28 28">
  <path d="m24.97 26.03-6.453-6.452V21h-2.965v-4.387L1.97 3.03l1.06-1.06 4.55 4.55c3.673.216 5.498 2.271 5.735 5.734L26.03 24.97l-1.06 1.06Z"/>
  <path d="M6.821 17.621c2.281 0 3.194-1.197 3.403-2.965H4.483v-2.719H9.46l3.616 3.616c-.664 2.845-2.588 4.654-5.932 4.654-1.692 0-3.08-.324-4.144-.76V16.27s1.483 1.35 3.821 1.35ZM6.742 9.22 4.425 6.901c-.453.13-.896.286-1.31.454l.246 3.174C4.685 9.406 5.68 9.233 6.742 9.22Zm8.81 3.855 2.965 2.965v-.035c.419.038.628.038 1.35.038 2.548 0 5.133-1.216 5.133-4.828 0-3.327-1.863-4.6-5.17-4.6-1.3 0-2.342.046-3.402.094l-.876.038v6.328Zm4.068-3.913c1.73 0 2.395.798 2.395 2.072 0 1.406-.836 2.167-2.395 2.167a9 9 0 0 1-1.103-.057V9.18c.324-.02.704-.02 1.103-.02Z"/>
</svg>
