<svg xmlns="http://www.w3.org/2000/svg" width="28" height="28" fill="currentColor" viewBox="0 0 28 28">
  <path d="M10.224 14.655c-.21 1.769-1.122 2.966-3.403 2.966-2.338 0-3.821-1.35-3.821-1.35v3.175c1.065.437 2.452.76 4.144.76 4.24 0 6.198-2.908 6.198-7.147 0-4.164-2.015-6.559-6.426-6.559-1.217 0-2.623.38-3.802.855l.247 3.175C4.75 9.352 5.776 9.22 6.897 9.22c1.654 0 3.06.646 3.346 2.718h-5.76v2.719h5.741Zm8.293 1.35c.419.038.628.038 1.35.038 2.548 0 5.133-1.216 5.133-4.828 0-3.327-1.863-4.6-5.17-4.6-1.3 0-2.342.046-3.402.094l-.876.038V20h2.965v-3.995Zm1.103-6.844c1.73 0 2.395.799 2.395 2.073 0 1.406-.836 2.167-2.395 2.167-.494 0-.741-.02-1.103-.057V9.18c.324-.019.704-.019 1.103-.019Z"/>
</svg>
