<svg xmlns="http://www.w3.org/2000/svg" width="28" height="28" fill="currentColor" viewBox="0 0 28 28">
  <path d="M18.806 2.715a.508.508 0 0 0-.5-.516H9.694a.486.486 0 0 0-.158.027.52.52 0 0 0-.317.653l.11.34a.753.753 0 0 0 .712.528h7.918c.323 0 .61-.213.712-.529l.11-.34a.531.531 0 0 0 .025-.163ZM14 4.78c-1.615 0-3.312.247-5.09.743-1.437.4-2.472 1.697-2.578 3.23l-.263 3.805c-.044.628.286 1.22.833 1.499 2.045 1.04 4.41 1.559 7.098 1.559 2.687 0 5.053-.52 7.098-1.56.547-.277.877-.87.833-1.498l-.263-3.805c-.106-1.533-1.14-2.83-2.578-3.23-1.779-.496-3.475-.743-5.09-.743ZM8.56 25.046 6 26.968V28h2.5l1.5-2.491-1.44-.463Zm9.44.463 1.5 2.49H22v-1.031l-2.56-1.922-1.44.463Z"/>
  <path d="M14 16.648c-3.067 0-5.734-.658-8-1.973l-.25 5.069c1.04 1.033 1.54 2.151 1.5 3.354 1.44 1.204 3.69 1.806 6.752 1.806s5.311-.602 6.748-1.806c.065-1.204.565-2.323 1.5-3.357L22 14.675c-2.266 1.315-4.933 1.973-8 1.973Zm-6.5.53 3.5.524v1.765L8.5 19.2c-.553-.098-1-.63-1-1.189v-.833Zm9.5.524 3.5-.525v.833c0 .558-.447 1.092-1 1.189l-2.5.268v-1.764Z"/>
</svg>
