<svg xmlns="http://www.w3.org/2000/svg" width="28" height="28" fill="currentColor" viewBox="0 0 28 28">
  <path d="m24.97 26.03 1.06-1.06-4.885-4.885C23.977 17.69 25.701 14.597 26 14c-.5-1-5-9-12-9-2.259 0-4.257.833-5.945 1.995L3.03 1.97 1.97 3.03l23 23ZM21 14a6.97 6.97 0 0 1-1.548 4.391l-2.143-2.143a3.98 3.98 0 0 0 .69-2.248c0-.41-.06-.806-.175-1.178a2 2 0 1 1-2.646-2.646 4.002 4.002 0 0 0-3.426.515L9.609 8.548A7 7 0 0 1 21 14ZM5.752 8.933C3.576 11.113 2.257 13.485 2 14c.5 1 5 9 12 9 1.695 0 3.244-.47 4.625-1.195l-1.527-1.526a7 7 0 0 1-9.377-9.377l-1.97-1.97Z"/>
  <path d="M10 14c0-.256.024-.507.07-.75l4.68 4.68A4 4 0 0 1 10 14Z"/>
</svg>
