<svg xmlns="http://www.w3.org/2000/svg" width="28" height="28" fill="currentColor" viewBox="0 0 28 28">
  <path d="m24.97 26.03-4.681-4.68v.002l-3.22-3.22v-.002l-5.52-5.52h-.002L6.712 7.775v-.002L1.97 3.03l1.06-1.06 3.783 3.782L7 2h1v4.94l.835.834L9 2h1l.2 7h.8V2h1l.47 9.409 4.751 4.751.019-.232c.094-1.187.16-2.02.16-2.422 0-.566-.524-1.233-.935-1.756a12.62 12.62 0 0 1-.265-.345c-.8-1.2-1.2-2.602-1.2-4.002C15 4.4 16.6 2 18.5 2S22 4.401 22 7.403c0 1.4-.38 2.983-1.112 4.002-.056.082-.13.184-.215.298-.383.524-.973 1.329-.973 1.903 0 .293.069 1.173.166 2.415.067.856.148 1.885.229 3.013l5.935 5.936-1.06 1.06ZM6.645 9.122 6.5 12.02s2 1.001 2 2.004c0 1.672-.25 3.428-.501 5.182-.25 1.748-.499 3.493-.499 5.15 0 2.192 4 2.192 4 0 0-1.646-.246-3.358-.494-5.083-.252-1.754-.506-3.522-.506-5.25 0-.25.125-.5.312-.734L6.645 9.122ZM16.75 22.36c.06-.815.13-1.782.222-2.91l3.459 3.458c.043.522.069.97.069 1.403.1 2.302-4.1 2.202-3.9 0 .047-.515.094-1.162.15-1.951Z"/>
</svg>
