<svg xmlns="http://www.w3.org/2000/svg" width="28" height="28" fill="currentColor" viewBox="0 0 28 28">
  <path d="M8.728 13.674c.122.015.273.023.44.033.654.036 1.562.088 1.993.561.113.122.355.413.69.815l.261.313 1.492 1.813c1.064 1.293 2.317 2.83 3.468 4.24a590.414 590.414 0 0 0 3.2 3.906c1.613 1.924 4.456-.886 2.614-2.708-.822-.82-2.835-2.727-4.867-4.651l-.002-.002-.003-.003c-.96-.908-1.923-1.821-2.768-2.625.21-.242.37-.413.451-.493.781-.786 3.184.07 3.184.07L26 6.887l-.731-.735-5.317 5.407-.7-.694 5.196-5.58-.65-.654-5.568 5.196-.71-.714 5.406-5.358-.67-.674-8.08 7.049s.9 2.497.1 3.303l-.531.493-1.172-1.138c-.427-.483-.482-1.51-.52-2.208a6.486 6.486 0 0 0-.04-.531v-.292a7.912 7.912 0 0 0-2.143-4.36C7.587 2.94 4.453 2.255 2.88 3.887c-1.572 1.63-1.001 4.933 1.302 7.4a7.26 7.26 0 0 0 4.055 2.337l.49.05Z"/>
  <path d="M3.625 22.706c-1.88 1.682.913 4.574 2.689 2.666.85-.902 2.88-3.182 4.858-5.403L13 17.916 11.37 16l-1.366 1.175c-2.517 2.165-5.365 4.616-6.38 5.531Z"/>
</svg>
