<svg xmlns="http://www.w3.org/2000/svg" width="28" height="28" fill="currentColor" viewBox="0 0 28 28">
  <path d="M13 10a6.002 6.002 0 0 1-5 5.917V18h3v2H8v3H6v-3H3v-2h3v-2.083A6.002 6.002 0 0 1 7 4a6 6 0 0 1 6 6ZM7 6a4 4 0 1 0 0 8 4 4 0 0 0 0-8Zm11.983 3.415 1.017-1v3.668A6.002 6.002 0 0 0 21 24a6 6 0 0 0 1-11.917V8.414l1.08 1A1.99 1.99 0 0 0 24.5 10a1.994 1.994 0 0 0 1.408-.586L21 4.586l-4.846 4.83c.373.372.857.567 1.346.584a1.994 1.994 0 0 0 1.483-.585ZM17 18a4 4 0 1 1 8 0 4 4 0 0 1-8 0Z"/>
</svg>
