<svg xmlns="http://www.w3.org/2000/svg" width="28" height="28" fill="currentColor" viewBox="0 0 28 28">
  <path d="M12.428 6.021a1.637 1.637 0 0 0-.436.938c-.053.383-.309.737-.692.785l-.794.099c-.15-1.197.183-2.182.844-2.864.644-.667 1.537-.979 2.4-.979A3.25 3.25 0 0 1 17 7.25c0 .806-.215 1.537-.73 2.143-.435.512-1.039.88-1.77 1.151V12h2.9l1 2s7.8 4.4 9 5c.4.2.5.5.5 1 .1.5-.4 1-.4 1l-9-3h-9l-9 3s-.5-.5-.5-1 .1-.8.5-1c.4-.2 9-5 9-5l1-2H13v-1.811c0-.452.3-.831.707-.959.733-.23 1.167-.511 1.42-.808.24-.283.373-.646.373-1.172a1.75 1.75 0 0 0-1.75-1.75c-.518 0-1 .188-1.322.521Z"/>
</svg>
