<svg xmlns="http://www.w3.org/2000/svg" width="28" height="28" fill="currentColor" viewBox="0 0 28 28">
  <path d="M13.064 6.488c-2.877-2.218-7.037-2.04-9.15 1.097-1.98 3.12-.872 8.41 4.588 12.632a45.758 45.758 0 0 0 5.494 3.636l.002.001v.002l.002-.001.002.001v-.002l.001-.001a45.665 45.665 0 0 0 5.49-3.636c5.497-4.221 6.564-9.511 4.586-12.632-2.112-3.136-6.27-3.315-9.144-1.097a7.44 7.44 0 0 0-.935.86 7.452 7.452 0 0 0-.936-.86Zm3.093 1.583c2.157-1.664 4.911-1.346 6.247.608 1.175 1.89.924 6.07-4.128 9.952l-.004.002A43.724 43.724 0 0 1 14 21.543a42.579 42.579 0 0 1-.758-.464 43.77 43.77 0 0 1-3.517-2.446c-5.031-3.89-5.306-8.071-4.136-9.954 1.338-1.954 4.095-2.272 6.254-.607.241.186.685.628.685.628S14.43 10.605 15 12.5c.477-1.325.564-2.524.306-3.618l.167-.182c.214-.233.443-.443.684-.629Z"/>
</svg>
