<svg xmlns="http://www.w3.org/2000/svg" width="28" height="28" fill="currentColor" viewBox="0 0 28 28">
  <path d="M25 9.895C25 6.737 22.263 4 18.895 4 17.043 4 15.32 4.659 14 5.98 12.79 4.77 11.14 4 9.38 4 5.86 4 3 6.749 3 10.268v.33c0 5.058 5.94 10.446 11 13.854 1.802 1.214 4.05-.33 3.17-1.21-.88-.879-5.216-5.103-5.216-5.103l.9-.55s3.016 2.905 4.996 4.884c2.09 1.98 4.51-.55 2.64-2.31-1.87-1.758-5.436-5.323-5.436-5.323l1.09-.394L20.7 19c1.61 1.704 4.053-.452 2.463-2.323l-6.315-6.316-2.6 2.6a2 2 0 0 1-2.828 0l-.592-.593 5.06-5.06C16.743 6.455 17.624 6 18.895 6 21.205 6 23 7.887 23 9.895c0 1.43-.27 2.816-1.022 4.088a.698.698 0 0 1-.036.058l1.437 1.438A5.56 5.56 0 0 0 23.7 15c.98-1.658 1.3-3.421 1.3-5.105Z"/>
</svg>
