<svg xmlns="http://www.w3.org/2000/svg" width="28" height="28" fill="currentColor" viewBox="0 0 28 28">
  <path d="M4.006 9.21C4.089 7.313 5.089 5.614 6.652 4l2.042 2.108C7.371 7.474 7.037 8.508 7 9.345c-.037.835.205 1.843 1.301 3.2 1.41 1.748 1.987 3.575 1.562 5.508C9.468 19.848 8.256 21.465 6.77 23l-2.042-2.108c1.4-1.446 1.986-2.562 2.192-3.5.176-.799.16-1.704-.837-2.938-1.31-1.623-2.16-3.347-2.077-5.245Zm7 0c.083-1.896 1.082-3.595 2.646-5.21l2.042 2.108c-1.323 1.366-1.657 2.4-1.694 3.237-.037.835.205 1.843 1.301 3.2 1.41 1.748 1.987 3.575 1.562 5.508-.395 1.795-1.607 3.412-3.093 4.947l-2.042-2.108c1.4-1.446 1.986-2.562 2.192-3.5.176-.799.16-1.704-.837-2.938-1.31-1.623-2.16-3.347-2.077-5.245Zm7 0c.083-1.896 1.082-3.595 2.646-5.21l2.042 2.108c-1.323 1.366-1.657 2.4-1.694 3.237-.037.835.205 1.843 1.301 3.2 1.41 1.748 1.987 3.575 1.562 5.508-.395 1.795-1.607 3.412-3.093 4.947l-2.042-2.108c1.4-1.446 1.986-2.562 2.192-3.5.176-.799.16-1.704-.837-2.938-1.31-1.623-2.16-3.347-2.077-5.245Z"/>
</svg>
