<svg xmlns="http://www.w3.org/2000/svg" width="28" height="28" fill="currentColor" viewBox="0 0 28 28">
  <path d="M14 1C7.16 7.611 4.848 14.611 6.523 22h14.954C23.152 14.611 20.84 7.611 14 1Zm0 6a1 1 0 1 1 0-2 1 1 0 0 1 0 2Zm4 2a1 1 0 1 1-2 0 1 1 0 0 1 2 0Zm1 5a1 1 0 1 1 0-2 1 1 0 0 1 0 2Zm1.5 3.5a1 1 0 1 1-2 0 1 1 0 0 1 2 0ZM11 10a1 1 0 1 1 0-2 1 1 0 0 1 0 2Zm-1 3a1 1 0 1 1-2 0 1 1 0 0 1 2 0Zm-1.5 5.5a1 1 0 1 1 0-2 1 1 0 0 1 0 2ZM7.412 25a25.332 25.332 0 0 1-.64-2h14.455c-.182.664-.395 1.33-.64 2H7.412Z"/>
</svg>
