<svg xmlns="http://www.w3.org/2000/svg" width="28" height="28" fill="currentColor" viewBox="0 0 28 28">
  <path d="M20.48 7.416c1.9-1.19 3.91.486 4.37 1.708 1.37-4.465-3.74-7.049-7.24-4.357-1.22-2.065-6.91-2.66-7.91 2.606 2.72-1.514 4.65-1.233 6-.357-1.69-.097-6.96 1.08-3.56 7.47.963-1.85 2.511-3.262 4.36-3.978a35.77 35.77 0 0 1-2.08 8.01 8.308 8.308 0 0 1 3.36.898c.534-2.9.839-5.844.91-8.8 1.3.81 2.81 2.476 2.37 6.216 3.13-1.351 4.11-7.103-.58-9.416ZM9.79 19.61a8.046 8.046 0 0 1 2.37-.907 22.614 22.614 0 0 1-2.27-7.838c-3.35-1.59-6.63.345-5.63 4.194.57-.951 2.18-2.551 3.47-1.773-3.66 2.854-3.21 5.59-.66 7.406.023-1.85.716-3.616 1.93-4.92a41.49 41.49 0 0 0 .79 3.839ZM21 26c0-3.622-3.15-6.422-7-6.422-3.88 0-7 2.8-7 6.422h14Z"/>
</svg>
