<svg xmlns="http://www.w3.org/2000/svg" width="28" height="28" fill="currentColor" viewBox="0 0 28 28">
  <path d="m15.588 10.402-.523-2.09v-.73l2.612.73.522-1.044-3.134-2.298V2.045c0-.627-.418-1.045-1.044-1.045-.627 0-1.045.418-1.045 1.045V4.97L9.842 7.268l.522 1.045 2.612-.732v.732l-.523 2.089h3.135Zm7.939 2.089 2.716-.835c.627-.105.836-.732.731-1.254-.209-.522-.835-.836-1.358-.627l-2.716.836-3.238-2.298-.836.835 1.671 2.09-.73.209-2.195.104.94 3.03 1.776-1.15.732-.208.104 2.716 1.15.209 1.253-3.657Zm-12.954-.731-2.194-.104-.73-.21 1.566-2.298-.836-.835-3.238 2.298-2.716-.836c-.627-.209-1.15.105-1.358.627-.188.588 0 1.119.835 1.463l2.717.835 1.253 3.657 1.15-.21.104-2.715.731.208 1.776 1.15.94-3.03Zm-4.179 6.268 1.15 3.76-1.672 2.3c-.313.417-.209 1.148.21 1.462.417.313 1.148.209 1.462-.21l1.671-2.298 3.865-.104.21-1.15-2.508-.94.418-.626 1.671-1.358-2.507-1.88-.836 1.984-.417.627-1.672-2.09-1.045.523Zm8.776.836 1.671 1.358.418.627-2.507.94.209 1.149 3.865.104 1.671 2.299c.314.418 1.045.522 1.463.209.418-.314.522-1.045.209-1.463l-1.672-2.298 1.15-3.761-1.045-.522-1.672 2.089-.417-.627-.836-1.985-2.507 1.88Z"/>
</svg>
