<svg xmlns="http://www.w3.org/2000/svg" width="28" height="28" fill="currentColor" viewBox="0 0 28 28">
  <path d="m13.48 15.76-.444-1.031-.44 1.03h.883Z"/>
  <path d="M9.173 3C4.653 3 3 4.653 3 9.172v9.656C3 23.348 4.653 25 9.173 25h9.651C23.344 25 25 23.347 25 18.828V9.172C25 4.652 23.347 3 18.827 3H9.173Zm3.206 13.279-.262.6h-.597L12.79 14h.516l1.263 2.878h-.612l-.26-.6H12.38Zm3.23-.298L16.261 14h.477l.654 1.98.637-1.978h.607l-1.002 2.878h-.488l-.654-1.89-.655 1.89h-.484l-1.004-2.878h.622l.636 1.979Zm-6.282-.352c0 .48.234.738.658.738.422 0 .655-.25.655-.718V14h.584v1.625c0 .825-.454 1.298-1.247 1.298-.784 0-1.235-.464-1.235-1.274v-1.647h.585v1.627Zm8.34-8.962A3.67 3.67 0 0 1 14 10.333a3.67 3.67 0 0 1-3.667-3.666h.518A3.152 3.152 0 0 0 14 9.815a3.152 3.152 0 0 0 3.149-3.148h.518ZM22.556 14v2.876h-.577V14h.577Zm-1.81 1.116v.525h-1.062v.713h1.598v.524h-2.174v-2.876h2.119v.525h-1.543v.59h1.063ZM7.349 14h.584v2.88h-.584v-1.17h-1.32v1.17h-.584V14h.585v1.162h1.32V14Z"/>
</svg>
