<svg xmlns="http://www.w3.org/2000/svg" width="28" height="28" fill="currentColor" viewBox="0 0 28 28">
  <path d="M4.546 23.167c1.547 1.525 4.036 1.525 9.014 1.525h.88c4.978 0 7.467 0 9.014-1.525C25 21.643 25 19.188 25 14.28v-.868c0-4.908 0-7.362-1.546-8.887C21.907 3 19.418 3 14.44 3h-.88C8.582 3 6.093 3 4.546 4.525 3 6.05 3 8.504 3 13.412v.868c0 4.908 0 7.363 1.546 8.887Zm15.438-5.749-1.486-.366a.426.426 0 0 1-.312-.394l-.185-5.395a1.685 1.685 0 0 0-1.153-1.449.076.076 0 0 0-.084.03.063.063 0 0 0 .015.085c.139.106.52.452.52 1.048v7.053c0 .681-.654 1.18-1.327 1.015l-1.51-.372a.428.428 0 0 1-.289-.389l-.185-5.395a1.685 1.685 0 0 0-1.153-1.449.076.076 0 0 0-.084.03.063.063 0 0 0 .014.085c.14.106.521.452.521 1.047v7.054c0 .681-.653 1.181-1.326 1.015l-4.264-1.05a1.313 1.313 0 0 1-1.008-1.268v-7.065c0-.68.653-1.18 1.326-1.014l2.686.661V9.662c0-.681.653-1.18 1.326-1.015l2.687.662V8.035c0-.68.652-1.18 1.325-1.014l4.264 1.05a1.313 1.313 0 0 1 1.008 1.268v7.064c0 .681-.652 1.181-1.325 1.015Z"/>
</svg>
