<svg xmlns="http://www.w3.org/2000/svg" width="28" height="28" fill="currentColor" viewBox="0 0 28 28">
  <path d="M17.714 3.885c1.438-1.721 1.32-3.289 1.277-3.87L18.989 0c-1.28.075-2.763.879-3.607 1.87-.93 1.06-1.478 2.374-1.36 3.852 1.386.108 2.65-.61 3.692-1.837Z"/>
  <path d="M20.722 12.683c-.011-1.967.871-3.451 2.656-4.544-.999-1.441-2.508-2.234-4.5-2.39-1.198-.095-2.468.378-3.427.736-.551.206-1 .373-1.276.373-.34 0-.868-.192-1.474-.413-.812-.296-1.763-.642-2.585-.642C7.15 5.85 4 8.187 4 12.94c0 1.404.255 2.856.765 4.35.68 1.967 3.135 6.79 5.696 6.709.615-.015 1.147-.218 1.71-.434.665-.254 1.375-.525 2.318-.525.87 0 1.526.255 2.16.502.597.232 1.176.457 1.9.457 2.582-.037 4.803-4.42 5.451-6.392-3.37-1.6-3.286-4.65-3.279-4.91v-.014Z"/>
</svg>
