<svg xmlns="http://www.w3.org/2000/svg" width="28" height="28" fill="currentColor" viewBox="0 0 28 28">
  <path d="M22.781 6.759a1.46 1.46 0 0 1 .489-.394C16.46-2.738 2.09 2.175 2 13.217c-.006.05-.01.101-.013.152-1.435 1.955-1.143 3.928.243 5.08.443.364.96.626 1.528.805.061.074.123.147.186.218a8.737 8.737 0 0 1-.194-.218 6.39 6.39 0 0 1-.75-.299 12.27 12.27 0 0 0 2.774 4.095 11.824 11.824 0 0 0 4.127 2.612 11.54 11.54 0 0 0 9.459-.639 12.3 12.3 0 0 0 4.545-4.358 12.812 12.812 0 0 0 1.863-6.076c.402-.93.564-1.917.382-2.94a4.775 4.775 0 0 0-1.292-2.48 9.138 9.138 0 0 0 .31-.636c.02-.048.04-.091.062-.135.165-.36.186-.77.06-1.146a1.492 1.492 0 0 0-.74-.856 1.404 1.404 0 0 0-1.28 0 1.47 1.47 0 0 0-.489.363Zm-18.242 9.86a7.975 7.975 0 0 1-.535-2.015c2.84-4.118 12.38-6.467 17.085-5.273a13.988 13.988 0 0 1-2.28 2.163c-4.576 3.573-11.736 5.583-14.27 5.126Zm17.3-8.267.115-.181a6.347 6.347 0 0 1-.12.173l.005.008ZM7.72 19.458c2.22-.282 4.528-1.049 6.23-1.72 3.294-1.29 6.913-3.421 9.326-6.263.248.868.38 1.766.394 2.671-2.054 3.365-10.35 7.252-15.95 5.312ZM20.958 7.316c-4.994-1.013-12.237.808-16.656 3.87 2.242-7.59 11.618-9.374 16.656-3.87Zm3.431 9.391c-.437.523-.925 1-1.46 1.423a9.803 9.803 0 0 1-4.46 5.16 9.585 9.585 0 0 1-5.934 1.062 9.728 9.728 0 0 1-5.397-2.675c3.52 1.397 8.19.824 12.282-1.277 1.744-.881 3.627-2.157 4.97-3.693Z"/>
</svg>
