<svg xmlns="http://www.w3.org/2000/svg" width="28" height="28" fill="currentColor" viewBox="0 0 28 28">
  <path d="M14 5s4 3.5 4 8.5-4 8.5-4 8.5-4-3.5-4-8.5S14 5 14 5ZM6 6s2.242.547 4.5 2c-.502.956-1.05 2.195-1.296 3.439-1.323-.592-2.655-.934-3.792-1.137A20.37 20.37 0 0 1 6 6Z"/>
  <path d="M15.5 22c.396-.433.82-1.053 1.332-1.82C17.895 18.585 19 16.268 19 13.5c0-.339-.017-.672-.048-.998 3.322-1.604 7.048-1.5 7.048-1.5S26.002 16.5 23.5 19c-2.165 2.164-4.988 2.961-8 3ZM2 11s3.66-.103 6.966 1.468c-.033.336-.051.68-.051 1.031 0 2.767 1.104 5.085 2.168 6.68.51.766 1.021 1.38 1.417 1.813-3.003-.043-5.852-.844-8-2.992C1.998 16.5 2 11 2 11Zm20.612-.706c-1.142.203-2.484.545-3.816 1.141C18.552 10.2 17.998 8.952 17.5 8 19.753 6.537 22 6 22 6s.528 1.882.612 4.294Z"/>
</svg>
