<svg xmlns="http://www.w3.org/2000/svg" width="28" height="28" fill="currentColor" viewBox="0 0 28 28">
  <path d="M8.444 2.878 8.5 2.81V2H2.63v2.294l.306-.07c.533-.12.91-.183 2.186-.195L2 8.716V9.5h6.215V6.977l-.353.162a3.75 3.75 0 0 1-.626.173c-.3.062-.637.11-.916.11h-.91l.218-.333 1.063-1.612c.393-.594.796-1.2 1.12-1.682.328-.488.565-.832.633-.917Zm6.006 5.859.05-.067V8h-4.08v1.804l.31-.075c.326-.079.56-.123 1.295-.135L10 12.851v.649h4.31v-1.996l-.36.176a2.303 2.303 0 0 1-.396.117 2.91 2.91 0 0 1-.59.076h-.47l.082-.134a511.526 511.526 0 0 1 1.455-2.352c.22-.35.375-.593.418-.65Z"/>
  <path d="m4.59 21.791.401-.68C14 23 23 11 15.243 3.68l.4-.681a11.55 11.55 0 0 1 2.65 1.095c5.46 3.093 7.33 9.944 4.178 15.302-3.151 5.358-10.131 7.194-15.59 4.1a11.413 11.413 0 0 1-2.29-1.706Z"/>
</svg>
