<svg xmlns="http://www.w3.org/2000/svg" width="28" height="28" fill="currentColor" viewBox="0 0 28 28">
  <path d="M7.772 7.72C8.013 5.956 9.125 4 10.5 4c1.375 0 2.487 1.955 2.728 3.72.212 1.556-1.133 2.78-2.728 2.78-1.595 0-2.94-1.224-2.728-2.78ZM5.75 9.5c-1.375 0-2.487 1.955-2.728 3.72C2.81 14.777 4.155 16 5.75 16c1.595 0 2.94-1.224 2.728-2.78C8.237 11.456 7.125 9.5 5.75 9.5Zm11.278 4.073c-1.454-2.097-4.602-2.097-6.056 0l-3.94 5.685c-1.572 2.267.583 5.261 3.31 4.665 1.637-.358 3.051-.622 3.658-.622.607 0 2.02.264 3.658.622 2.727.596 4.882-2.398 3.31-4.665l-3.94-5.685ZM17.5 4c-1.375 0-2.487 1.955-2.728 3.72-.212 1.556 1.133 2.78 2.728 2.78 1.595 0 2.94-1.224 2.728-2.78C19.987 5.956 18.875 4 17.5 4Zm4.75 5.5c-1.375 0-2.487 1.955-2.728 3.72C19.31 14.777 20.655 16 22.25 16c1.595 0 2.94-1.224 2.728-2.78-.241-1.765-1.353-3.72-2.728-3.72Z"/>
</svg>
