<svg xmlns="http://www.w3.org/2000/svg" width="28" height="28" fill="currentColor" viewBox="0 0 28 28">
  <path d="m24.97 26.03 1.06-1.06-4.58-4.58a2.948 2.948 0 0 0-.482-1.132l-3.94-5.685c-.906-1.307-2.47-1.8-3.872-1.478L11.42 10.36c1.152-.364 1.978-1.395 1.808-2.638C12.987 5.955 11.875 4 10.5 4 9.34 4 8.368 5.391 7.947 6.886L3.03 1.97 1.97 3.03l23 23ZM11.024 13.5a3.739 3.739 0 0 0-.052.073l-3.94 5.685c-1.572 2.267.583 5.261 3.31 4.665 1.637-.358 3.051-.622 3.658-.622.607 0 2.02.264 3.658.622a3.133 3.133 0 0 0 2.93-.858L11.022 13.5Zm-5.274-4c-1.375 0-2.487 1.955-2.728 3.72C2.81 14.777 4.155 16 5.75 16c1.595 0 2.94-1.224 2.728-2.78C8.237 11.456 7.125 9.5 5.75 9.5Z"/>
  <path d="M14.772 7.72C15.013 5.956 16.125 4 17.5 4c1.375 0 2.487 1.955 2.728 3.72.212 1.556-1.133 2.78-2.728 2.78-1.595 0-2.94-1.224-2.728-2.78ZM22.25 9.5c-1.375 0-2.487 1.955-2.728 3.72C19.31 14.777 20.655 16 22.25 16c1.595 0 2.94-1.224 2.728-2.78-.241-1.765-1.353-3.72-2.728-3.72Z"/>
</svg>
