<svg xmlns="http://www.w3.org/2000/svg" width="28" height="28" fill="currentColor" viewBox="0 0 28 28">
  <path d="M5.904 4A1.905 1.905 0 0 0 4 5.905h1.904l2.382 2.47c.025 12.221 5.213 14.208 10.42 10.81l.99 1.029a2.381 2.381 0 1 0 1.16-.851L5.905 4ZM21.62 20.667a.952.952 0 1 1 0 1.904.952.952 0 0 1 0-1.904ZM13.596 4.505c-1.414 0-2.525.91-2.323 2.626.505 3.03 4.848 3.435 4.444-.505l.505-1.313s-1.414-.808-2.626-.808Z"/>
  <path d="m16.323 13.09 3.131 3.233c.91.91 2.425 1.212 3.738 0l-3.233-3.232c-.909-1.01-2.424-1.212-3.636 0ZM8.286 24a2.381 2.381 0 1 0 0-4.762 2.381 2.381 0 0 0 0 4.762Zm0-3.333a.952.952 0 1 1 0 1.904.952.952 0 0 1 0-1.904Z"/>
</svg>
