<svg xmlns="http://www.w3.org/2000/svg" width="28" height="28" fill="currentColor" viewBox="0 0 28 28">
  <path d="M14.184 1c-1.127 0-1.904.132-2.399.93-.254.37-.385.887-.385 1.79 0 .432-.18 1.258-.428 1.632.194.11 1.083.458 2.55.458 1.467 0 2.246-.306 2.47-.458-.309-.38-.373-.677-.416-1.495-.035-.679-.145-1.236-.332-1.626-.05-.12-.28-.598-.845-.707 0 0-.128-.295-.215-.524Zm-.3 5.847c-.895.044-1.928-.045-2.875-.395l-.911.46s-.458 2.032-.853 3.507c-.297 1.106.67 2.26 1.498 2.82L9 16.592l7.024.837L16 13.238c.87-.557 2.152-1.772 1.815-2.827a613.639 613.639 0 0 0-1.15-3.538l-.745-.404c-.52.197-1.254.34-2.036.378ZM12.504 26c1.253 0 2.36 0 2.36-1.684v-5.858l-3.501-.447L12.504 26Z"/>
</svg>
