<svg xmlns="http://www.w3.org/2000/svg" width="28" height="28" fill="currentColor" viewBox="0 0 28 28">
  <path d="M15.122 2c-1.21 0-2.189.861-1.982 2.373.37 2.714 4.127 3.1 3.774-.506l.45-1.179S16.144 2 15.122 2Zm2.843 11.723s.855.72 1.582 1.246c.976.706 2.109.329 2.294-.658l-3.882-3.321.006 2.733Z"/>
  <path d="m16.806 8.292.152 8.049 4.148 9.094c-.497.575-1.8.866-2.44-.278a5075.483 5075.483 0 0 1-5.809-10.469l-.54-3.28-2.78 3.367-.06 1.145c-.906.396-2.198-.453-1.335-2.13.68-1.32 3.083-5.19 4.206-6.312 2.731-.213 4.458.814 4.458.814Z"/>
  <path d="m13.962 19.239-1.7-3.039s-2.578 6.433-3.102 7.693C8.61 25.213 9.763 26 10.59 26l3.372-6.761ZM5 23.3a2.118 2.118 0 0 0-3.13 1.1L0 23.218s1.875-3.267 2.964-5.202c.965-1.715 1.297-2.118 2.42-2.118 1.267 0 2.165 1.059 2.735 1.73.083.099.16.19.23.267L5 23.3ZM3.872 26a.907.907 0 1 1 0-1.815.907.907 0 0 1 0 1.815Z"/>
</svg>
