<svg xmlns="http://www.w3.org/2000/svg" width="28" height="28" fill="currentColor" viewBox="0 0 28 28">
  <path d="M12.398 1c1.26 0 2.282.898 2.066 2.474-.386 2.829-4.303 3.231-3.934-.528l-.47-1.229S11.334 1 12.399 1Zm5.626 14.124.063 1.284c.945.413 2.263-.078 1.363-1.826-.707-1.376-3.925-6.698-3.925-6.698h-.007l-.003.001-.007.001a.47.47 0 0 1-.019.003c-1.771-1.339-3.58-1.197-3.58-1.197-1.483.023-2.781.262-3.711 1.197 0 0-1.61 4.699-2.103 6.693-.479 1.932 1.01 2.165 1.01 2.165l2.123-5.505v14.523s1.903.761 2.043-1.058c.14-1.826.47-7.531.47-7.531l.7.04s1.601 6.221 1.936 7.627c.377 1.582 2.203.99 2.203.99l-1.706-10.936-.009-3.256 3.16 3.483Zm4.823 8.266a2.049 2.049 0 0 1 3.028 1.064l1.809-1.145s-1.814-3.16-2.867-5.032c-.933-1.658-1.255-2.048-2.34-2.048-1.225 0-2.094 1.024-2.645 1.674-.081.095-.155.182-.222.257l3.237 5.23ZM23.94 26a.878.878 0 1 0 0-1.755.878.878 0 0 0 0 1.755Z"/>
</svg>
