<svg xmlns="http://www.w3.org/2000/svg" width="28" height="28" fill="currentColor" viewBox="0 0 28 28">
  <path d="M12.902 11.032s4.394.659 6.042.989c1.438.191 1.12 1.135 1.015 1.446a.46.46 0 0 0-.026.092h-4.285l1.429 10.218s-1.868.44-2.088-.66c-.22-.879-1.318-5.164-1.318-5.164h-.44s-.22 3.956-.33 5.164c-.11 1.319-1.867.77-1.867.77v-8.13l-2.308 2.856s-.988-.11-.659-1.429c.33-1.318 2.307-5.383 2.307-5.383.66-.55 1.539-.77 2.528-.77ZM13.011 4c1.539 0 2.747 1.099 2.418 2.966-.44 3.407-5.055 3.846-4.615-.659l-.55-1.428S11.694 4 13.012 4Z"/>
</svg>
