<svg xmlns="http://www.w3.org/2000/svg" width="28" height="28" fill="currentColor" viewBox="0 0 28 28">
  <path d="M14.079 2.635c1.077 0 1.95.767 1.765 2.114-.33 2.418-3.677 2.762-3.362-.45l-.4-1.051s1.086-.613 1.997-.613Zm2.641 5.887C15.206 7.378 13.661 7.5 13.661 7.5c-1.268.02-2.377.225-3.172 1.023 0 0-1.375 4.016-1.797 5.72-.409 1.652.863 1.85.863 1.85l1.814-4.705V23.8s1.627.65 1.746-.904c.12-1.56.402-6.436.402-6.436l.598.034s1.369 5.317 1.655 6.518c.322 1.353 1.883.846 1.883.846l-1.459-9.346-.007-2.782c.019-.059.038-.127.057-.201l2.349 4.38s1.237-.355.627-1.943c-.622-1.62-2.456-5.352-2.5-5.44v-.003Z"/>
</svg>
