<svg xmlns="http://www.w3.org/2000/svg" width="28" height="28" fill="currentColor" viewBox="0 0 28 28">
  <path d="M6.498 6.711C7.409 5.242 8.925 5 11 5c.16.422.308.965.308.965 1.04.2 1.466 1.08 1.557 1.301.344.718.546 1.744.611 2.994.079 1.505.197 2.05.764 2.75-.41.282-1.846.99-4.546.99S5.357 13.216 5 13.01c.456-.687.788-2.207.788-3.003 0-1.662.242-2.615.71-3.296Zm12.449 14.967.11.322H27c-.538-1.58-1.596-4.42-2.677-5.657-.56-.64-1.793-1.11-3.12-1.343H15.24c.314.192.603.418.837.684.648.742 1.233 1.884 1.704 2.956.484 1.1.893 2.235 1.167 3.038ZM1.355 21c-.134.366-.254.707-.355 1h17c-.538-1.58-1.596-4.42-2.677-5.657-.56-.64-1.793-1.11-3.12-1.343H6.812c-1.45.245-2.736.735-3.229 1.323-.765.914-1.634 3.055-2.227 4.677Zm14.419-10.402c.373 2.026 2.168 2.902 2.168 2.902h1.183s1.811-.884 2.168-2.902c.235-1.318.592-3.282.592-3.282s-.385-1.12-1.577-1.35c0 0-.148-.544-.308-.966-2.332 0-3.935.306-4.817 2.316 0 0 .368 2.066.591 3.282Z"/>
</svg>
