<svg xmlns="http://www.w3.org/2000/svg" width="28" height="28" fill="currentColor" viewBox="0 0 28 28">
  <path d="M17.389 7.942c-1.76-1.27-3.52-1.173-3.52-1.173-1.467 0-2.738.196-3.716 1.173 0 0-1.564 4.694-2.053 6.747-.49 1.956.978 2.152.978 2.152l2.15-5.574v14.57s1.956.782 2.054-1.076c.098-1.858.293-3.911.293-3.911h1.76s.685 2.64.978 4.009c.294 1.564 2.152.977 2.152.977l-1.663-10.951v-3.227l.098-.293 2.738 5.182s1.369-.39.684-2.249c-.782-1.858-2.835-6.258-2.933-6.356ZM14.358 1c1.271 0 2.249.88 2.053 2.445-.39 2.933-4.302 3.324-3.911-.49l-.489-1.27S13.282 1 14.358 1Z"/>
</svg>
