<svg xmlns="http://www.w3.org/2000/svg" width="28" height="28" fill="currentColor" viewBox="0 0 28 28">
  <path d="M16.603 1c-1.346 0-2.437.96-2.206 2.643.411 3.021 4.595 3.451 4.202-.564l.5-1.313S17.742 1 16.604 1Zm-3.287 5c2.566 0 3.934 1.901 3.242 4-.08.241-.195.714-.32 1.225-.084.341-.172.7-.256 1.017a7.04 7.04 0 0 1 1.426 1.313l2.235.945c1.729.293 2.396.613 2.588 2.25.164 1.396.769 7.156.769 7.156s-.472.118-1 .094c-.59-.026-1.248-.23-1.396-.97-.123-.61-1.22-5.03-1.22-5.03H19a7 7 0 1 1-8.43-6.854L11 9H8.206l-3.21 3.282s-1.343-.434-.91-1.543C4.45 9.805 7 6 7 6h6.316ZM7 18a5 5 0 1 0 10 0 5 5 0 0 0-10 0Z"/>
</svg>
