<svg xmlns="http://www.w3.org/2000/svg" width="28" height="28" fill="currentColor" viewBox="0 0 28 28">
  <path d="M6.8 13.2c3.3.9 7.1 4.7 8.1 8.1-2.9 1.1-7 2.7-9.8 3.8-2.3.9-2.9.3-2-2 1-2.9 2.6-7.1 3.7-9.9Z"/>
  <path d="M7.2 12.2c.5-1.3.8-2.2.8-2.2 4 0 10 6 10 10 0 0-.9.3-2.2.8-.8-3.4-5.1-7.8-8.6-8.6Zm11.9 1.4 1.7.8 1.4-1.2L22 15l1.5 1-1.8.4-.5 1.8-.9-1.6-1.8.1 1.2-1.4-.6-1.7Zm5.6-9.9-.6 1.8-.8-1.7h-1.8l1.3-1.3-.5-1.8 1.6.9L25.4.5l-.3 1.8 1.4 1.2-1.8.2Zm-1.266 8.054c-.887.502-1.958.566-2.954.566v-1.54c.747 0 1.576-.007 2.25-.373.402-.218.613-.513.857-.856l.013-.018c.253-.405.566-.849 1.166-1.188.887-.501 1.958-.565 2.954-.565v1.54c-.747 0-1.576.007-2.25.373-.402.218-.612.513-.857.856l-.013.018c-.253.404-.566.848-1.166 1.187Zm-13.2-2.808 1.309.714c.513-.843 1.002-1.785 1.002-2.798 0-.508-.203-.98-.402-1.447-.2-.468-.398-.929-.386-1.412.02-.772.432-1.5.809-2.15l-1.31-.714c-.508.87-1.001 1.841-1.001 2.873 0 .5.202.956.401 1.407.2.453.399.9.386 1.378-.019.771-.431 1.5-.808 2.15Zm7.692-1.22c-.345 0-.922.226-.922.564-1.037 0-.806-2.032.922-2.032 1.153 0 2.075.903 2.075 2.258C20 10.323 18.848 11 17.12 11c-1.73 0-3.112-1.468-3.112-3.161C13.893 5.919 15.045 4 17.926 4c2.42 0 4.38 1.92 4.034 4.29h-1.152c0-1.354-.807-2.822-2.882-2.822-2.598 0-2.552 1.793-2.537 2.385v.02l.002.079c0 1.129.922 1.693 1.729 1.693.806 0 1.383 0 1.383-1.129 0-.339-.23-.79-.577-.79Z"/>
</svg>
