<svg xmlns="http://www.w3.org/2000/svg" width="28" height="28" fill="currentColor" viewBox="0 0 28 28">
  <path d="M12 4c-3 2.9-3 17 0 20h8.3c1.6 0 2.7-1.1 2.7-2.8V6.7C23 5.1 21.9 4 20.3 4H12Zm.7 9.5c0-.6.4-1 1-1s1.1.5 1 1c0 .6-.4 1-1 1s-1-.4-1-1Zm0 3c0-.6.4-1 1-1s1.1.5 1 1c0 .6-.4 1-1 1s-1-.4-1-1Zm0 3c0-.6.4-1 1-1s1.1.5 1 1c0 .6-.4 1-1 1s-1-.4-1-1Zm3-6c0-.6.4-1 1-1s1 .5 1 1c0 .6-.4 1-1 1s-1-.4-1-1Zm0 3c0-.6.4-1 1-1s1 .5 1 1c0 .6-.4 1-1 1s-1-.4-1-1Zm0 3c0-.6.4-1 1-1s1 .5 1 1c0 .6-.4 1-1 1s-1-.4-1-1Zm3-6c0-.6.4-1 1-1s1 .5 1 1c0 .6-.4 1-1 1s-1-.4-1-1Zm0 3c0-.6.4-1 1-1s1 .5 1 1c0 .6-.4 1-1 1s-1-.4-1-1Zm0 3c0-.6.4-1 1-1s1 .5 1 1c0 .6-.4 1-1 1s-1-.4-1-1Z"/>
  <path d="m8 18-2-1v-6l2-1 2-5-4-2S3 6.7 3 14s3 11 3 11l4-2-2-5Z"/>
</svg>
