<svg xmlns="http://www.w3.org/2000/svg" width="28" height="28" fill="currentColor" viewBox="0 0 28 28">
  <path d="M16.336 7.004a.2.2 0 0 1-.308.22l-1.906-1.372a.2.2 0 0 0-.234 0l-1.905 1.372a.2.2 0 0 1-.309-.22l.692-2.306a.2.2 0 0 0-.067-.215l-1.866-1.477a.2.2 0 0 1 .117-.357l2.316-.077a.2.2 0 0 0 .183-.136l.766-2.3a.2.2 0 0 1 .38 0l.766 2.3a.2.2 0 0 0 .183.136l2.316.077a.2.2 0 0 1 .117.357l-1.866 1.477a.2.2 0 0 0-.067.215l.692 2.306Zm2.613 16.563a6 6 0 0 0 5.956-6c0-3.3-2.6-6-6-6h-10a6 6 0 0 0 0 12h10.044Zm-14.044-6a4 4 0 0 1 4-4h5.1v8h-5.1a4 4 0 0 1-4-4ZM24.67 7.526c0-.076.044-.145.113-.178l2.105-1.013a.198.198 0 0 0-.027-.367l-2.258-.701a.198.198 0 0 1-.139-.176l-.15-2.338a.198.198 0 0 0-.363-.096l-1.28 1.958a.198.198 0 0 1-.212.084l-2.214-.534a.198.198 0 0 0-.207.308l1.393 1.934c.046.064.05.149.01.216l-1.229 2.073a.198.198 0 0 0 .24.286l2.204-.836a.198.198 0 0 1 .226.062l1.436 1.814a.198.198 0 0 0 .353-.123V7.526ZM7.54 8.98a.198.198 0 0 0 .242-.285L6.558 6.63a.198.198 0 0 1 .01-.216l1.394-1.937a.198.198 0 0 0-.207-.309l-2.217.535a.198.198 0 0 1-.212-.084l-1.282-1.96a.198.198 0 0 0-.364.095l-.15 2.341a.198.198 0 0 1-.14.177l-2.25.698a.198.198 0 0 0-.025.37l2.192 1.017c.07.032.114.102.114.18V9.91c0 .188.237.27.354.123l1.437-1.816a.198.198 0 0 1 .228-.061l2.1.825Z"/>
</svg>
