<svg xmlns="http://www.w3.org/2000/svg" width="28" height="28" fill="currentColor" viewBox="0 0 28 28">
  <path d="M8.751 6.668s-.966.258-.707 1.224c.647.374 1.263 1.591 1.786 3.08.364.006.75.009 1.17.009 1.67 0 2.814-.043 4.12-.193.655-.075 1.197-.17 1.604-.28.435-.118.583-.179.862-.457l.042-.01c.108-.025.18-.041.372-.041.425 0 .81.11 1.133.324.316.211.515.485.636.729a2.229 2.229 0 0 1 .23.902v.026l.001.01v.318l-.175.256c-.187.273-.4.892-.563 1.848-.099.582-.17 1.236-.214 1.919 3.05-.807 5.658-1.27 6.59-.73 0 0 .967-.26.708-1.226-.938-.541-1.814-2.747-2.39-5.053-.55-2.21-.83-4.51-.457-5.572 0 0-.259-.966-1.225-.707-.53.919-3.242 1.904-6.503 2.778-3.26.873-6.101 1.376-7.02.846Z"/>
  <path d="M10.163 11.995C7.158 11.955 4.687 11.687 4 11c0 0-1 0-1 1 .75.75 1 3.125 1 5.5s-.25 4.75-1 5.5c0 0 0 1 1 1a.927.927 0 0 1 .037-.035c.806-.726 3.64-.974 6.963-.984 3.35-.01 6.203.222 7 1.019 0 0 1 0 1-1-.766-.766-1.04-3.123-1-5.5.005-.297.015-.596.03-.89.1-1.963.417-3.802.97-4.61 0 0 0-1-1-1-.75.75-3.625.981-7 .981-.285 0-.566-.002-.843-.005l.006.019Z"/>
</svg>
