<svg xmlns="http://www.w3.org/2000/svg" width="28" height="28" fill="currentColor" viewBox="0 0 28 28">
  <path d="M18.09 17.562a4.388 4.388 0 0 1-.088.398l-.377 1.41-10.624-2.847.377-1.41a4.414 4.414 0 0 1 .124-.388c.473-1.271 1.522-2.482 2.724-2.514l.682-4.476c-.604-.653-.926-1.887-.749-2.927.022-.131.051-.264.087-.399L10.623 3l10.624 2.847-.376 1.409a4.693 4.693 0 0 1-.124.389c-.367.99-1.264 1.897-2.112 2.16l-1.648 4.218c1.025.629 1.33 2.202 1.102 3.539ZM9.576 28l4.41-8.57-3.864-1.035L9.576 28Z"/>
</svg>
