<svg xmlns="http://www.w3.org/2000/svg" width="28" height="28" fill="currentColor" viewBox="0 0 28 28">
  <path d="M18.109 17.43a4.355 4.355 0 0 1-.108.531l-.377 1.409L7 16.523l.377-1.41a4.786 4.786 0 0 1 .172-.513c.494-1.225 1.513-2.358 2.676-2.39l.682-4.475c-.579-.625-.898-1.783-.769-2.794.006-.045.012-.09.02-.133.022-.131.051-.264.088-.399L10.621 3l10.625 2.847-.377 1.409a3.937 3.937 0 0 1-.124.389 3.178 3.178 0 0 1-.05.125c-.393.94-1.25 1.783-2.062 2.035l-1.648 4.218c.991.608 1.308 2.1 1.123 3.406Zm.615-10.189L12.11 5.47c.005.143.026.296.066.45.034.134.078.247.12.332a.875.875 0 0 0 .078.126l.654.707-1.079 7.082-1.655.044c-.021.006-.126.044-.3.216-.178.175-.352.42-.49.698l6.649 1.781c.018-.31-.01-.608-.076-.848-.065-.238-.137-.323-.152-.339l-1.411-.866 2.606-6.671.92-.286s.01-.003.035-.015a.884.884 0 0 0 .095-.055c.08-.053.174-.129.272-.228a2.13 2.13 0 0 0 .28-.356Zm-4.74 12.189L9.575 28l.546-9.605 3.863 1.035Z"/>
</svg>
