<svg xmlns="http://www.w3.org/2000/svg" width="28" height="28" fill="currentColor" viewBox="0 0 28 28">
  <path d="M28 15.897C28 17.658 25 18 25 18H7.477L5.38 12.012c2.368-.247 3.424 1.107 4.32 2.461 0 0 1.3-.504 3.3-1.008L9.782 5.222s1.963-.99 4.036 1.21c1.855 1.982 5.136 5.76 5.682 6.53.296-.016.604-.04.921-.066 1.154-.09 2.419-.19 3.579.066 2.5.503 4 1.754 4 2.935ZM4.85 13.528 6.417 18H4.754l-1.087-3.102-.927-2.68c.493-.3 1.083-.304 1.579-.207l.433 1.235.113.34-.015-.058Zm-3.253-1.513c-.5-.101-1.098-.1-1.597.203L2 18h1.693l-2.096-5.985ZM11 19c.6 0 1 .4 1 1s-.4 1-1 1-1-.4-1-1 .5-1 1-1Zm4 1c0-.6-.4-1-1-1-.5 0-1 .4-1 1s.4 1 1 1 1-.4 1-1Zm9 0c0-.6-.4-1-1-1-.5 0-1 .4-1 1s.4 1 1 1 1-.4 1-1Z"/>
</svg>
