<svg xmlns="http://www.w3.org/2000/svg" width="28" height="28" fill="currentColor" viewBox="0 0 28 28">
  <path d="M15.221 14.431c-.125.296-.19.604-.194.924h-2.054c0-.587.108-1.07.325-1.448a2.95 2.95 0 0 1 .937-.98c.295-.221.543-.43.742-.625.2-.195.3-.435.3-.718 0-.312-.096-.545-.287-.7-.187-.157-.512-.236-.974-.236-.47 0-.822.114-1.055.343-.23.229-.344.604-.344 1.124h-2.041c0-1.966 1.12-3.286 3.44-3.286 1.77 0 3.328.901 3.328 2.574 0 .545-.138.98-.412 1.305-.275.32-.583.601-.924.843-.4.291-.662.585-.787.88Zm-1.213 4.739a1.352 1.352 0 1 0 0-2.704 1.352 1.352 0 0 0 0 2.705Z"/>
  <path d="M25 14c0 6.075-4.925 11-11 11S3 20.075 3 14 7.925 3 14 3s11 4.925 11 11ZM5 14a9 9 0 1 0 18 0 9 9 0 0 0-18 0Z"/>
</svg>
