<svg xmlns="http://www.w3.org/2000/svg" width="28" height="28" fill="currentColor" viewBox="0 0 28 28">
  <path d="M15.242 5.475c-1.396-.803-3.29-1.105-5.982.302 1.097-4.922 6.68-4.32 7.976-2.21 3.49-2.511 8.574-.1 7.178 4.017-.498-1.205-2.51-2.68-4.405-1.576 4.686 2.11 3.707 7.402.617 8.708.398-3.516-1.097-5.123-2.393-5.826 0 3.861-1.26 9.869-2.632 12.252a4.49 4.49 0 0 1-3.904.143c-2.011-2.132-2.58-4.876-3.135-7.674-.897.904-1.695 2.41-1.894 4.62-2.492-1.707-2.891-4.319.698-6.93-1.296-.804-2.891.703-3.49 1.607-.997-3.616 2.357-5.4 5.647-3.893.1 1.004.903 5.103 3.495 8.518 2.205-2.31 2.717-6.43 2.944-8.255.03-.239.055-.438.078-.589-1.496.603-3.29 1.708-4.387 3.717-3.39-5.926 1.894-7.031 3.589-6.93Z"/>
  <path d="M18 20.441c-2.393 2.913-6.508 3.014-9 0-2.393 2.813-6.12 2.913-8.514.1-.697.905-.597 2.084 0 2.713 2.194 2.31 6.121 2.21 8.514 0 2.492 2.21 6.508 2.21 9 0 1.894 2.21 6.514 2.41 8.508.1.498-.502.797-1.908 0-2.812-2.393 2.812-6.015 2.812-8.508-.1Z"/>
</svg>
