<svg xmlns="http://www.w3.org/2000/svg" width="28" height="28" fill="currentColor" viewBox="0 0 28 28">
  <path d="M12.7 5.8c-1.6-1.3-3.3-1.6-4.8-1C6.1 5.5 5 6.9 5 9v15h2V9c0-1.4.7-2 1.7-2.4.6-.3 1.5-.3 2.5.5-.8 1-1.2 2.1-1.2 3.4 0 1.8.9 3.3 2.1 4.4l7.7-7.7c-1-1.3-2.5-2.2-4.3-2.2-1 0-2 .3-2.8.8ZM17 16c0-.5-.4-1-1-1s-1 .4-1 1c0 .5.4 1 1 1s1-.4 1-1Zm2 3c0-.6-.4-1-1-1s-1 .4-1 1 .4 1 1 1 1-.4 1-1Zm2 3c0-.6-.4-1-1-1s-1 .4-1 1 .4 1 1 1 1-.4 1-1Zm-3-8c0 .6.4 1 1 1s1-.4 1-1-.4-1-1-1-1 .4-1 1Zm4-3c0-.6-.4-1-1-1s-1 .5-1 1c0 .6.4 1 1 1s1-.5 1-1Zm1 6c0-.6-.4-1-1-1s-1 .5-1 1c0 .6.4 1 1 1s1-.5 1-1Zm2-4c0-.5-.4-1-1-1s-1 .5-1 1 .4 1 1 1 1-.4 1-1Zm1 7c0-.6-.4-1-1-1s-1 .4-1 1 .4 1 1 1 1-.4 1-1Zm2-5c0-.6-.4-1-1-1s-1 .4-1 1 .4 1 1 1 1-.4 1-1Z"/>
</svg>
