<svg xmlns="http://www.w3.org/2000/svg" width="28" height="28" fill="currentColor" viewBox="0 0 28 28">
  <path d="M21.076 3.007C21.551 2.25 22 1.37 22 0h2v19.55A2.5 2.5 0 0 1 26 22h-2v1.5l-.75 1.5-.75-1.5V22h-2a2.5 2.5 0 0 1 2-2.45V7.736c-.426-.028-.911-.104-1.34-.307a1.982 1.982 0 0 1-.829-.704C20.113 6.39 20 5.982 20 5.5c0-.512.161-.95.37-1.348.14-.267.32-.544.494-.814.073-.112.145-.223.212-.33ZM22.5 2.47a8.116 8.116 0 0 1-.576 1.069c-.088.14-.171.269-.25.39-.16.248-.3.464-.419.69-.166.315-.255.59-.255.882 0 .321.074.533.169.678.095.146.234.26.42.348.26.123.58.181.911.207V2.469ZM10.4 26.4s-.3-1.1-.7-2.8c.5-1.8 1.3-4.7 2.1-7.7 1.3 4.8 2.5 9.5 2.5 9.5.5 2.1-3.4 3.2-3.9 1Zm-2.2-1.1c-.6 2.1-4.4 1.1-3.9-1 0 0 1.3-4.9 2.7-10.2C5.7 9.2 4.4 4.4 4 3c-.3-1.2.7-2 1.7-1.5 2 1.1 2.9 3.3 3.4 4.9a109.09 109.09 0 0 0 1.08-4.114l.12-.486c.4-1.3 1.7-1.5 2.2-.5 1.3 2.2.8 4.7.4 6.3-1.1 3.9-4.7 17.7-4.7 17.7Z"/>
  <path d="M16.076 6.007C16.551 5.25 17 4.37 17 3h2v19.55A2.5 2.5 0 0 1 21 25h-2v1.5l-.75 1.5-.75-1.5V25h-2a2.5 2.5 0 0 1 2-2.45V10.736c-.426-.028-.91-.104-1.34-.306a1.982 1.982 0 0 1-.829-.705C15.113 9.39 15 8.982 15 8.5c0-.512.161-.95.37-1.348.14-.267.32-.545.495-.814.072-.112.144-.223.211-.33ZM17.5 5.47a8.124 8.124 0 0 1-.576 1.069c-.088.14-.171.269-.25.39-.16.248-.3.464-.419.69-.166.315-.255.59-.255.882 0 .321.074.533.169.678.095.146.235.26.42.348.26.123.58.181.911.207V5.469Z"/>
</svg>
