<svg xmlns="http://www.w3.org/2000/svg" width="28" height="28" fill="currentColor" viewBox="0 0 28 28">
  <path d="M13 11c0-2.5-.7-5-4-5s-6.5 1.9-6.5 6v4c1.4-.6 3.1-1 5-1s3.6.4 5 1c0-.049.03-.26.075-.579.14-.982.425-2.986.425-4.421Zm-2 12c0-2.8.4-5.8.5-6.4-1.2-.4-2.5-.6-4-.6s-2.8.2-4 .6l.011.067C3.627 17.357 4 19.585 4 22c0 2.5 1.1 4 3 4s4-.9 4-3Zm8.5-10c-1.4-.3-2.8-.5-4-.4-.022.111-.06.346-.111.674-.182 1.15-.545 3.448-1.089 5.626-.5 2 1.2 3.4 3.1 3.9 1.8.5 3.3-.7 3.9-3.1.584-2.001 1.376-3.864 1.74-4.717.072-.17.127-.3.16-.383-1-.6-2.3-1.2-3.7-1.6Zm-4-6.2c-.5 1.8-.8 4.7-.8 4.9 1.5-.2 3.2-.2 5.1.4 1.8.5 3.4 1.3 4.6 2.2 0-.107.172-.73.393-1.53.192-.696.421-1.526.607-2.27 1.1-4-1.5-6.7-4.7-7.5-3.2-.8-4.6 1.4-5.2 3.8Z"/>
</svg>
