<svg xmlns="http://www.w3.org/2000/svg" width="28" height="28" fill="currentColor" viewBox="0 0 28 28">
  <path d="M3.03 1.97 1.97 3.03l23 23 1.06-1.06-10.62-10.622L16 14l3.337-1.927 3.698.991.518-1.932-1.766-.473 2.24-1.293-1-1.732-2.24 1.293.473-1.766-1.932-.518-.99 3.698L15 12.268V8.414l2.707-2.707-1.414-1.414L15 5.586V3h-2v2.586l-1.293-1.293-1.414 1.414L13 8.414v3.525L3.03 1.97ZM15 19.586l2.707 2.707-1.414 1.414L15 22.414V25h-2v-2.586l-1.293 1.293-1.414-1.414L13 19.586v-3.854L9.662 17.66l-.99 3.698-1.932-.518.473-1.766-2.24 1.293-1-1.732 2.24-1.293-1.766-.473.518-1.932 3.697.99 3.035-1.751L15 17.477v2.109Z"/>
  <path d="m20.254 17.776-1.65-1.65L22.5 15.08l.535 1.928-2.781.769ZM5.5 12.92l3.897-1.046-1.634-1.634L5 10.984l.5 1.937Z"/>
</svg>
