<svg xmlns="http://www.w3.org/2000/svg" width="28" height="28" fill="currentColor" viewBox="0 0 28 28">
  <path d="M22 2.5C22 3.9 23.1 5 24.5 5S27 3.9 27 2.5 25.9 0 24.5 0 22 1.1 22 2.5Zm1.3 0c0-.6.5-1.2 1.2-1.2s1.2.5 1.2 1.2-.5 1.3-1.2 1.3c-.6 0-1.2-.7-1.2-1.3ZM22 10c1.1 0 2-.9 2-2s-.9-2-2-2-2 .9-2 2 .9 2 2 2Zm.1-1.3c-.5 0-.8-.3-.8-.7 0-.4.3-.7.8-.7.4 0 .7.3.7.7 0 .4-.3.7-.7.7ZM16 13l-2-2h-3c-2.7 2.7-4.3 9.4-4 14h12l-1-6c-1.9-1.3-2-3.1-2-6Zm1.8-2.5.5-.5c-.9-.8-2.3-2.4-2.3-4h2V4h-8v2c.4 0 1 .8 1 4h3V7.5h.5c.5 1.1 1.9 2.1 3.3 3Z"/>
</svg>
