<svg xmlns="http://www.w3.org/2000/svg" width="28" height="28" fill="currentColor" viewBox="0 0 28 28">
  <path d="M19 28c1.4 0 2-.6 2-2v-1h1V10.7C22 9.1 20.9 8 19.2 8H8.7C7.1 8 6 9.1 6 10.7V25h1v1c0 1.4.6 2 2 2h1v-2h8v2h1Zm-3.5-6c0 .8-.7 1.5-1.5 1.5s-1.5-.7-1.5-1.5.7-1.5 1.5-1.5 1.5.7 1.5 1.5Zm-5-8.7c.9-1.3 2-2 3.5-2 2.4 0 3.2 1.2 3.2 3 0 1.37-.66 1.93-1.258 2.435-.493.416-.942.797-.942 1.565 0 1.1-2 1.1-2 0 0-1.505.684-2.047 1.29-2.527.48-.38.91-.72.91-1.473 0-.8-.5-1.3-1.2-1.3s-1.5.5-2.3 1.6l-1.2-1.3ZM12.7 0C11.1 0 10 1.1 10 2.7V7h2V3h4v4h2V2.7C18 1.1 16.9 0 15.2 0h-2.5Z"/>
</svg>
