<svg xmlns="http://www.w3.org/2000/svg" width="28" height="28" fill="currentColor" viewBox="0 0 28 28">
  <path d="M16 2.75C16 1.093 14.907 0 13.25 0h-2.5C9.093 0 8 1.093 8 2.75V7h2V3h4v4h2V2.75ZM17 28c1.387 0 2-.607 2-2v-1h1V10.75C20 9.093 18.907 8 17.25 8H6.75C5.093 8 4 9.093 4 10.75V25h1v1c0 1.425.622 2 2 2h1v-2h8v2h1ZM8 15l2-2 4 4-2 2-4-4Zm6.016-2a2 2 0 1 1 4.001.001A2 2 0 0 1 14.016 13ZM22 4h5V2.5h-5V4Zm0 3h3V5.5h-3V7Zm0 3h3V8.5h-3V10Zm0 3h3v-1.5h-3V13Zm0 3h5v-1.5h-5V16Zm0 3h3v-1.5h-3V19Zm0 3h3v-1.5h-3V22Zm0 3h3v-1.5h-3V25Zm0 3h5v-1.5h-5V28Z"/>
</svg>
