<svg xmlns="http://www.w3.org/2000/svg" width="28" height="28" fill="currentColor" viewBox="0 0 28 28">
  <path d="M10 18.5c-2.2 2.9-5.8 2.9-8 0V24h24v-5.5c-2.2 2.9-5.7 3-8 0-2.3 2.9-5.7 3-8 0Z"/>
  <path d="M19.209 8.855C19.499 8.19 19.78 7.55 20 7c.6-1.3 1.5-.7 1.5 1h2c0-2.5-.8-4-2.5-4s-2.1.9-3 3c-.21.473-.586 1.36-.91 2.123a70.34 70.34 0 0 1-.59 1.377c-.4.9-.5 1.4-.5 2.5H9c0-.9.1-1.4.5-2.5.225-.54.47-1.1.709-1.645.29-.665.571-1.305.791-1.855.6-1.3 1.5-.7 1.5 1h2c0-2.5-.8-4-2.5-4s-2.1.9-3 3c-.21.473-.586 1.36-.91 2.123A70.34 70.34 0 0 1 7.5 10.5c-.4.9-.5 1.4-.5 2.5v6.5c.7-.2 1.4-.6 2-1.2V15h7v4.1c.7-.5 1.4-1.2 2-2.1v-4c0-.9.1-1.4.5-2.5.225-.54.47-1.1.709-1.645Z"/>
</svg>
