<svg xmlns="http://www.w3.org/2000/svg" width="28" height="28" fill="currentColor" viewBox="0 0 28 28">
  <path d="m7 12 .236.865C11.86 10.144 13.5 4.46 13.5 2c.785 0 1.444.1 1.995.28C17.398 2.896 18 4.448 18 6v4h5c1.757 5.666 1.442 9.682-3 13-3 0-4.5 0-7.5-1H9.727L10 23H4V12h3Zm5.825 8 .308.103c2.466.822 3.712.89 6.176.896 1.547-1.287 2.278-2.591 2.552-4 .264-1.35.142-2.967-.373-4.999H15l1-1V6c0-.699-.176-1.142-.412-1.399a1.341 1.341 0 0 0-.36-.272 17.49 17.49 0 0 1-1.378 3.985c-.956 1.963-2.415 4.02-4.529 5.57l1.7 6.116h1.804Z"/>
</svg>
