<svg xmlns="http://www.w3.org/2000/svg" width="28" height="28" fill="currentColor" viewBox="0 0 28 28">
  <path d="M9.727 6 10 5H4v11h3l.236-.865C11.86 17.856 13.5 23.54 13.5 26c.785 0 1.444-.1 1.995-.28C17.398 25.104 18 23.552 18 22v-4h5c1.757-5.666 1.442-9.682-3-13-3 0-4.5 0-7.5 1H9.727Zm-.406 8.116L11.021 8h1.804l.308-.103c2.466-.822 3.712-.89 6.176-.896 1.547 1.287 2.278 2.591 2.552 4 .264 1.35.142 2.967-.373 4.999H15l1 1v5c0 .699-.176 1.142-.412 1.398a1.34 1.34 0 0 1-.36.273 17.49 17.49 0 0 0-1.378-3.985c-.956-1.963-2.415-4.02-4.529-5.57Z"/>
</svg>
