<svg xmlns="http://www.w3.org/2000/svg" width="28" height="28" fill="currentColor" viewBox="0 0 28 28">
  <path d="M2.351 14.296A3.491 3.491 0 0 1 4.6 12.459l16.438-4.343a3.524 3.524 0 0 1 1.578-.052l-1.23-2.638a2.5 2.5 0 0 0-3.322-1.21L3.563 10.978a2.5 2.5 0 0 0-1.212 3.318Z"/>
  <path d="M4.856 13.427c-1.336.352-2.128 1.706-1.77 3.022l1.555 5.72c.357 1.317 1.73 2.098 3.065 1.745l16.438-4.343c1.336-.352 2.128-1.706 1.77-3.022l-1.555-5.72c-.357-1.317-1.73-2.098-3.065-1.745L4.856 13.427Zm14.185.781a1 1 0 1 1 .518 1.932 1 1 0 0 1-.518-1.932Zm.448-2.19a1 1 0 1 1-1.931.517 1 1 0 0 1 1.931-.517Zm.328 5.087a1 1 0 1 1 .518 1.932 1 1 0 0 1-.518-1.932Z"/>
</svg>
