<svg xmlns="http://www.w3.org/2000/svg" width="28" height="28" fill="currentColor" viewBox="0 0 28 28">
  <path d="M8.276 5.8 9.74 7.262l6.982-4.03a1 1 0 0 1 1.366.365l2.575 4.46-1.285-1.224c-1.2-1.144-2.787-1.145-3.987 0l-3.115 2.965 3.706 3.706 2.533-2.533 1 1-2.533 2.533 3.783 3.783 3.328-3.169c1.201-1.144 1.2-2.653 0-3.797l-1.052-1a2.994 2.994 0 0 0-.22-2.528l-3-5.196A3 3 0 0 0 15.722 1.5L8.277 5.8ZM24.97 26.03l1.06-1.06-23-23-1.06 1.06 4.063 4.064L3.598 8.5A3 3 0 0 0 2.5 12.598l1.91 3.309 1.49-1.419-1.668-2.89a1 1 0 0 1 .366-1.366l2.9-1.674 2.966 2.966L4.88 16.84c-.6.57-.9 1.232-.9 1.894-.002.664.299 1.33.901 1.903l4.714 4.488c1.202 1.144 2.787 1.145 3.988.001l5.37-5.113 6.017 6.017ZM14.213 15.274l1 1-3.198 3.198h1.5c1.346 0 1.895.161 1.986 1.161.01.104.014.217.014.34h-6v-6c.957 0 1.306.221 1.431.832.06.293.07.676.07 1.167v1.5l3.197-3.198Z"/>
</svg>
