<svg xmlns="http://www.w3.org/2000/svg" width="28" height="28" fill="currentColor" viewBox="0 0 28 28">
  <path d="M9.314 4.202c.303 1.17 1.42 1.886 2.48 1.592 1.061-.293 1.681-1.49 1.378-2.66l3.859-1.068c1.061-.294 2.177.423 2.48 1.592l4.412 17.01c.303 1.169-.317 2.366-1.378 2.66l-3.859 1.068c-.306-1.18-1.42-1.886-2.48-1.592-1.061.294-1.684 1.48-1.38 2.65l-3.86 1.068c-1.06.294-2.174-.412-2.478-1.582L4.077 7.93c-.303-1.169.317-2.366 1.378-2.66l3.859-1.068Zm3.217 5.385-.226 3.301-2.957.792-.02.564 2.915 1.177-.172 3.279.467.202 2.075-2.581 3.095 1.196.305-.41-1.789-2.753 1.935-2.482-.284-.476-2.978.798-1.848-2.746-.518.139Z"/>
</svg>
