<svg xmlns="http://www.w3.org/2000/svg" width="28" height="28" fill="currentColor" viewBox="0 0 28 28">
  <path d="m4.598 10.232 12.125-7a1 1 0 0 1 1.366.366l2.574 4.46-1.285-1.224c-1.2-1.144-2.787-1.145-3.987 0L4.881 16.84c-.6.57-.9 1.232-.902 1.894 0 .664.3 1.33.902 1.903l4.714 4.488c1.202 1.144 2.787 1.145 3.988.001l10.51-10.007c1.201-1.144 1.2-2.653 0-3.797l-1.052-1a2.994 2.994 0 0 0-.22-2.528l-3-5.196A3 3 0 0 0 15.722 1.5l-12.124 7A3 3 0 0 0 2.5 12.598l1.91 3.309 1.49-1.419-1.668-2.89a1 1 0 0 1 .366-1.366Zm6.417 8.24 7.5-7.5 1 1-7.5 7.5h1.5c1.346 0 1.895.161 1.986 1.161.01.104.014.217.014.34h-6v-6c.957 0 1.306.221 1.431.832.06.293.07.676.07 1.167v1.5Z"/>
</svg>
