<svg xmlns="http://www.w3.org/2000/svg" width="28" height="28" fill="currentColor" viewBox="0 0 28 28">
  <path d="M11.794 5.794c-1.06.294-2.177-.422-2.48-1.592l-3.86 1.069c-1.06.293-1.68 1.49-1.377 2.66l4.411 17.01c.304 1.169 1.417 1.875 2.478 1.58l3.86-1.067c-.304-1.17.319-2.356 1.38-2.65 1.06-.294 2.174.412 2.48 1.592l3.86-1.068c1.06-.294 1.68-1.491 1.377-2.66l-4.411-17.01c-.304-1.17-1.42-1.886-2.481-1.592l-3.859 1.068c.303 1.17-.317 2.367-1.378 2.66Zm-.218 9.992 1.526-7.21c.021-.1.161-.094.175.008l.645 4.782 2.392-.662c.064-.018.123.041.11.108l-1.526 7.21a.088.088 0 0 1-.175-.007l-.646-4.783-2.39.662a.09.09 0 0 1-.11-.108Z"/>
</svg>
