<svg xmlns="http://www.w3.org/2000/svg" width="28" height="29" fill="currentColor" viewBox="0 0 28 29">
  <path d="M26.443 5.904 27 5l-.669-.826C23.917 1.194 20.04.592 17.486 1.22c-1.202.296-2.296.997-2.972 1.814L14.521 3h-4.505A2 2 0 0 0 8.03 5.248L9 13h10l.375-2.996L19.5 10c.373-.015.67-.08 1.015-.157l.256-.055c2.18-.46 4.476-1.94 5.672-3.884Zm-8.598-3.227c2.066-.509 5.32-.028 7.32 2.441-1.131 1.839-3.478 3.272-5.665 3.38-.927.047-2.314-.078-3.195-.73-1.368.813-2.5 1.928-3.192 3.146l-.87-.495c1.702-2.992 5.706-5.397 9.751-4.923-1.755-1.166-4.429-1.323-6.793-.084a1.913 1.913 0 0 1 .257-1.124c.364-.62 1.282-1.34 2.387-1.611ZM11.5 22c-1-.5-3.5-2-3.5-6H7v-2h14v2h-1c0 4-2.5 5.5-3.5 6l1 4.977h-7l1-4.977Z"/>
</svg>
