<svg xmlns="http://www.w3.org/2000/svg" width="28" height="28" fill="currentColor" viewBox="0 0 28 28">
  <path d="M14 3.231c-1.21 0-2.252.74-2.726 1.803-.804.147-1.619.359-2.445.635C7.143 6.23 6 7.85 6 9.679v2.427c0 .5.235.97.63 1.261 1.103.811 3.56 1.217 7.37 1.217s6.267-.406 7.37-1.217c.395-.29.63-.76.63-1.26V9.248c0-1.534-.938-2.9-2.34-3.408-.994-.36-1.972-.63-2.933-.806C16.252 3.97 15.21 3.23 14 3.23Zm1.25 3.096c0 .713-.56 1.29-1.25 1.29s-1.25-.577-1.25-1.29c0-.712.56-1.29 1.25-1.29s1.25.578 1.25 1.29Z"/>
  <path d="M22.5 21.292c.625-.645-.126-5.677-.403-7.212-1.173 1.018-3.656 1.536-8.097 1.536-4.352 0-6.878-.496-8.105-1.536-.286 1.597-1.006 6.582-.395 7.212 0 0 4.246 4.644 8.5 4.644 4.246 0 8.5-4.644 8.5-4.644Zm-7-2.58c0 .854-.672 1.548-1.5 1.548s-1.5-.694-1.5-1.548c0-.855.672-1.548 1.5-1.548s1.5.693 1.5 1.548Zm-6.75 6.45L6 26.968V28h2.5l1.25-2.322-1-.516Zm10.5 0-1 .516L19.5 28H22v-1.032l-2.75-1.806Z"/>
</svg>
