<svg xmlns="http://www.w3.org/2000/svg" width="28" height="28" fill="currentColor" viewBox="0 0 28 28">
  <path d="M14.024 9.7a3.48 3.48 0 0 1-.351 1.341l.033.005A5.002 5.002 0 0 1 13.03 21h-.5v2H27l-4-6h3l-5-6h3l-5-7-3.084 4.383a5.502 5.502 0 0 0-10.88.822A5.502 5.502 0 0 0 1.03 14.5c0 2.985 2.434 5.417 5.399 5.5H8.03v-2l-1.601-.001a3.5 3.5 0 1 1 .995-6.884A3.485 3.485 0 0 1 7.064 9a3.501 3.501 0 0 1 6.96.695v.004Z"/>
  <path d="M15.25 15.5c0 .25-.25.5-.75 1-.6.6-2.1 2.3-3.1 3.5l.1 6H9s.1-4.5.1-8.5c-1-1.1-2.3-2.5-2.8-3-.55-.5-.825-.75-.825-1s.275-.5.825-1l2.9 2.1V12c0-1.4.5-2 2-2l.2 6.9 3.1-2.4c.5.5.75.75.75 1ZM21 24v2h-4v-2h4Z"/>
</svg>
