<svg xmlns="http://www.w3.org/2000/svg" width="28" height="28" fill="currentColor" viewBox="0 0 28 28">
  <path d="M19.52 3.056a2.5 2.5 0 0 1-2.04 1.824l-.198.736a9.027 9.027 0 0 1 3.965 3.045l.662-.382a2.5 2.5 0 0 1 1.235-2.445l2.5 4.33a2.5 2.5 0 0 1-2.735-.153l-.66.381A8.97 8.97 0 0 1 23 14c0 .459-.034.909-.1 1.349l.736.197a2.5 2.5 0 0 1 2.602-.855l-1.294 4.83a2.5 2.5 0 0 1-1.826-2.043l-.735-.197a9.026 9.026 0 0 1-3.044 3.965l.381.661a2.5 2.5 0 0 1 2.445 1.235l-4.33 2.5a2.5 2.5 0 0 1 .153-2.735l-.38-.659a9.07 9.07 0 0 1-4.957.652l-.198.736a2.5 2.5 0 0 1 .856 2.602l-4.83-1.294a2.5 2.5 0 0 1 2.042-1.826l.197-.735a9.027 9.027 0 0 1-3.965-3.044l-.66.381a2.5 2.5 0 0 1-1.235 2.445l-2.5-4.33a2.5 2.5 0 0 1 2.735.153l.659-.38A9.071 9.071 0 0 1 5.1 12.65l-.736-.198a2.5 2.5 0 0 1-2.602.856l1.294-4.83a2.5 2.5 0 0 1 1.825 2.042l.736.197a9.027 9.027 0 0 1 3.045-3.965l-.382-.66a2.5 2.5 0 0 1-2.445-1.236l4.33-2.5a2.5 2.5 0 0 1-.153 2.735l.381.66A8.97 8.97 0 0 1 14 5c.459 0 .909.034 1.35.1l.197-.736a2.5 2.5 0 0 1-.856-2.602l4.83 1.294ZM13 10.5a1.5 1.5 0 1 0-3 0 1.5 1.5 0 0 0 3 0ZM11.5 19a1.5 1.5 0 1 0 0-3 1.5 1.5 0 0 0 0 3Zm8.5-5a1.5 1.5 0 1 0-3 0 1.5 1.5 0 0 0 3 0Z"/>
</svg>
