<svg xmlns="http://www.w3.org/2000/svg" width="28" height="28" fill="currentColor" viewBox="0 0 28 28">
  <path d="M4.182 14.234A13.462 13.462 0 0 1 14 10c3.868 0 7.356 1.627 9.818 4.234l2.238-1.999A16.455 16.455 0 0 0 14 7a16.455 16.455 0 0 0-12.057 5.235l2.239 1.999Z"/>
  <path d="M21.579 16.233A10.47 10.47 0 0 0 13.999 13a10.47 10.47 0 0 0-7.578 3.233l2.24 2A7.477 7.477 0 0 1 14 16c2.09 0 3.98.854 5.339 2.233l2.24-2ZM14 19a3.99 3.99 0 0 1 2.984 1.336l-.986.88a3 3 0 0 1-3.996 0l-.986-.88A3.99 3.99 0 0 1 14 19Z"/>
</svg>
