<svg xmlns="http://www.w3.org/2000/svg" width="20" height="20" fill="currentColor" viewBox="0 0 20 20">
  <path d="m16.514 9.286 1.857-.572c.429-.071.572-.5.5-.857-.143-.357-.571-.571-.928-.428L16.085 8l-2.214-1.571L13.3 7l1.143 1.429-.5.142-1.5.072.643 2.071L14.3 9.93l.5-.143.071 1.857.786.143.857-2.5Zm-5.429-1.429-.357-1.428v-.5l1.786.5.357-.715-2.143-1.571v-2c0-.429-.285-.714-.714-.714s-.714.285-.714.714v2L7.157 5.714l.357.715 1.786-.5v.5l-.357 1.428h2.143Zm-3.428.929-1.5-.072-.5-.143L6.728 7l-.571-.571L3.943 8l-1.858-.571c-.428-.143-.785.071-.928.428-.129.402 0 .765.571 1l1.857.572.858 2.5.785-.143.072-1.857.5.142 1.214.786.643-2.071ZM4.8 13.071l.785 2.572-1.142 1.571c-.215.286-.143.786.142 1 .286.215.786.143 1-.143L6.728 16.5l2.643-.071.143-.786L7.8 15l.285-.429 1.143-.928-1.714-1.286-.571 1.357-.286.429-1.143-1.429-.714.357Zm6 .572 1.143.928.285.429-1.714.643.143.786 2.643.071 1.143 1.571c.214.286.714.358 1 .143.285-.214.357-.714.143-1l-1.143-1.571.785-2.572-.714-.357-1.143 1.429-.286-.429-.57-1.357-1.715 1.286Z"/>
</svg>
