<svg xmlns="http://www.w3.org/2000/svg" width="20" height="20" fill="currentColor" viewBox="0 0 20 20">
  <path d="M16.152 5.376C11.892-.136 2.906 2.84 2.849 9.526l-.008.092c-.897 1.184-.714 2.379.153 3.076.277.22.6.38.955.488.043.05.087.1.131.148a5.414 5.414 0 0 1-.137-.148 4.095 4.095 0 0 1-.469-.181 7.425 7.425 0 0 0 7.315 4.483 7.434 7.434 0 0 0 2.917-.809 7.59 7.59 0 0 0 4.008-6.317c.252-.563.354-1.161.24-1.782a2.862 2.862 0 0 0-.809-1.502 5.44 5.44 0 0 0 .188-.372l.045-.095a.912.912 0 0 0-1.226-1.212.918.918 0 0 0-.309.224.908.908 0 0 1 .309-.243Zm-12.05 4.99c1.778-2.494 7.743-3.917 10.686-3.193a8.632 8.632 0 0 1-1.425 1.31c-2.863 2.163-7.34 3.38-8.926 3.103a4.708 4.708 0 0 1-.334-1.22Zm6.221 1.897c2.06-.78 4.324-2.071 5.833-3.792.155.525.238 1.07.246 1.617-1.284 2.038-6.473 4.392-9.975 3.217 1.388-.17 2.832-.635 3.896-1.042Zm4.383-6.31c-3.123-.614-7.653.489-10.417 2.343 1.402-4.597 7.266-5.677 10.417-2.344ZM15.94 12.5a6 6 0 0 1-2.79 3.125 6.164 6.164 0 0 1-7.087-.978c2.202.847 5.122.5 7.682-.772 1.085-.531 2.255-1.298 3.094-2.221-.27.31-.57.594-.9.846Z"/>
</svg>
